{"glyphs":{"0":{"ha":531,"x_min":15,"x_max":513,"o":"m 254 -4 l 240 -4 q 147 29 185 -4 q 85 110 110 63 q 49 206 61 158 q 15 465 15 333 q 67 761 15 617 q 133 879 89 825 q 260 942 183 939 q 296 932 285 942 q 316 908 307 922 q 343 878 325 893 q 378 853 361 864 q 433 809 410 833 q 472 739 457 785 q 513 472 513 613 q 451 167 513 311 q 254 -4 379 11 m 243 114 q 372 235 319 121 q 424 508 424 350 q 372 797 424 719 q 311 831 350 831 q 207 791 243 831 q 151 689 171 751 q 117 463 117 579 q 135 294 117 376 l 138 279 q 156 210 144 249 q 188 143 168 172 q 243 114 208 114 z "},"1":{"ha":419,"x_min":14,"x_max":399,"o":"m 344 -6 l 340 -6 q 289 2 314 -6 q 235 11 264 10 q 172 6 206 11 q 106 1 139 1 q 26 22 61 1 q 14 44 14 33 q 42 81 14 65 q 179 115 111 115 l 168 358 l 196 733 q 125 704 164 704 q 81 756 81 704 q 128 863 81 800 q 243 942 190 942 q 290 919 274 942 q 312 865 306 897 q 318 804 318 833 q 315 767 318 783 l 286 497 q 244 121 268 310 q 381 89 342 121 q 399 50 399 71 q 384 13 399 29 q 344 -6 369 -3 z "},"2":{"ha":575,"x_min":8,"x_max":508,"o":"m 83 -4 l 74 -4 q 31 6 53 -4 q 8 46 10 17 q 34 110 8 76 q 89 172 60 143 q 122 210 110 193 q 365 618 297 425 q 389 732 389 683 q 371 799 389 768 q 336 817 356 817 q 282 797 308 817 q 172 653 200 742 q 147 603 165 624 q 107 585 128 585 q 66 602 85 585 q 47 646 47 619 l 47 650 q 119 815 56 738 q 260 926 182 892 q 339 943 300 943 q 423 919 385 943 q 482 849 461 896 q 508 722 508 786 q 382 372 508 568 q 249 185 306 253 q 189 106 214 147 l 263 107 q 376 99 319 107 l 381 97 q 428 72 428 90 l 426 67 q 347 39 418 43 q 225 18 308 35 q 83 -4 156 3 z "},"3":{"ha":592,"x_min":44,"x_max":540,"o":"m 201 0 q 131 7 168 0 q 69 31 94 14 q 44 78 44 47 q 54 115 44 94 q 83 97 69 108 q 154 72 114 72 q 259 97 204 72 q 349 146 314 121 q 408 205 385 171 q 432 275 432 239 q 400 346 432 311 q 281 390 354 390 q 178 378 229 390 q 125 369 136 369 q 83 382 101 369 q 60 432 60 397 q 80 478 60 461 q 124 507 100 494 q 246 586 188 543 q 361 719 328 649 q 375 769 375 746 q 346 808 375 797 l 332 810 q 269 785 308 810 q 206 761 231 761 q 160 785 175 761 q 150 818 150 800 q 171 869 150 846 q 335 936 243 936 q 412 919 375 936 q 472 863 449 903 q 494 772 494 822 q 453 624 494 697 q 351 518 413 551 l 351 507 q 490 422 439 485 q 540 281 540 358 q 503 154 540 218 q 397 54 463 92 q 201 0 301 0 z "},"4":{"ha":525,"x_min":31,"x_max":519,"o":"m 438 -6 q 418 6 426 -6 q 394 94 400 36 q 382 290 382 213 l 383 367 q 150 319 244 346 q 99 310 124 310 q 56 324 76 310 q 31 371 31 344 q 65 457 31 401 q 197 713 103 521 q 256 832 244 806 q 297 915 272 878 q 344 942 318 942 q 399 907 376 942 l 410 907 q 460 940 432 940 q 496 926 479 940 q 516 888 513 913 q 519 840 519 864 q 515 769 519 806 l 513 726 q 501 517 508 621 q 492 289 492 367 q 486 146 492 219 q 460 10 481 72 q 438 -6 454 -6 m 381 433 l 401 857 l 193 440 l 381 433 z "},"5":{"ha":554,"x_min":10,"x_max":535,"o":"m 172 -6 q 80 29 107 -6 q 53 113 53 64 q 90 247 53 179 q 196 349 146 349 q 210 333 210 349 q 206 313 210 324 q 185 265 201 301 q 155 192 168 229 q 142 110 142 154 l 142 101 q 302 180 231 113 q 404 331 374 247 q 417 403 417 364 q 372 503 417 474 q 338 513 356 513 q 290 501 314 513 q 244 477 267 490 q 199 454 221 464 q 158 444 178 444 q 107 476 131 444 q 96 519 96 496 q 100 560 96 540 l 103 582 q 111 738 111 686 q 108 801 111 769 l 101 800 q 68 796 85 796 q 42 801 54 796 q 10 860 10 825 q 101 936 10 925 q 181 940 142 940 l 271 940 q 450 914 360 940 q 503 868 503 900 l 501 857 q 433 821 488 825 q 229 807 357 807 l 224 622 l 246 628 q 340 644 293 644 q 372 642 356 644 q 497 551 458 622 q 535 399 535 479 q 422 126 535 250 q 240 6 342 38 q 172 -6 210 -6 z "},"6":{"ha":489,"x_min":19,"x_max":469,"o":"m 218 -7 q 64 119 115 -7 q 19 413 19 228 q 59 688 19 551 q 197 906 99 824 q 288 942 247 942 q 367 908 333 942 q 418 824 400 875 q 436 722 436 774 q 436 670 436 696 q 431 621 436 644 q 406 583 426 597 q 378 576 392 576 q 342 588 358 576 q 319 642 319 606 q 322 688 319 661 q 325 743 325 715 q 293 821 325 804 l 285 822 q 254 806 269 822 q 208 738 229 778 q 136 397 136 606 l 143 404 q 226 481 178 450 q 322 513 275 513 q 413 479 374 513 q 469 333 469 431 q 410 126 469 231 q 247 -4 350 21 q 218 -7 232 -7 m 225 106 q 328 192 290 115 q 368 331 367 268 l 368 339 q 317 429 368 429 l 307 428 q 199 360 250 417 q 147 244 147 303 q 164 172 147 222 q 222 106 183 106 l 225 106 z "},"7":{"ha":468,"x_min":13,"x_max":438,"o":"m 56 -3 q 35 38 35 -3 q 38 67 35 56 q 92 297 56 185 q 228 636 151 489 q 304 804 272 718 q 217 801 260 804 l 172 800 l 142 797 q 89 792 115 792 q 50 799 68 792 q 22 822 32 806 q 13 857 13 838 q 40 911 13 888 q 117 926 64 926 q 185 931 144 926 q 289 938 235 938 q 367 928 331 938 q 420 893 403 919 q 438 838 438 867 q 421 761 438 800 q 386 689 404 722 l 372 661 q 149 165 250 418 l 139 139 q 61 -1 101 14 l 56 -3 z "},"8":{"ha":526,"x_min":28,"x_max":490,"o":"m 194 -1 q 98 28 135 -1 q 44 106 61 58 q 28 207 28 154 q 75 382 28 308 q 107 461 106 428 q 86 532 107 492 q 64 614 65 572 q 138 819 64 714 q 317 943 213 925 l 326 943 q 403 903 375 943 q 438 817 431 863 q 443 744 443 781 q 433 639 443 692 q 399 489 418 540 q 381 421 385 456 q 390 395 381 406 q 411 376 400 385 q 485 278 467 335 q 490 240 490 258 q 444 126 490 179 q 335 40 397 74 q 194 -1 258 -1 m 311 444 q 349 682 349 557 q 328 839 349 767 q 224 752 267 822 q 182 615 182 682 q 188 572 182 592 q 240 500 201 538 q 311 444 279 463 m 213 117 q 306 151 258 117 q 368 232 354 186 l 368 235 q 340 283 368 250 q 274 344 311 317 q 211 372 238 372 q 156 282 178 372 q 143 201 143 238 q 213 117 143 117 z "},"9":{"ha":531,"x_min":18,"x_max":508,"o":"m 199 -6 q 98 41 140 -6 q 51 163 56 88 l 51 200 q 56 242 51 221 q 75 276 60 263 q 107 289 90 289 q 157 251 139 289 q 160 226 160 242 l 158 176 q 166 131 158 151 q 200 110 174 111 q 258 143 231 110 q 300 201 285 176 q 374 380 349 282 q 399 571 399 478 q 278 489 346 521 q 178 467 226 467 q 62 512 106 467 q 18 626 18 557 q 21 665 18 646 q 104 842 39 760 q 267 939 169 924 l 294 940 q 471 815 421 940 q 508 578 508 719 q 458 272 508 429 q 294 28 408 115 q 199 -6 244 -6 m 207 554 q 310 583 250 557 q 390 649 371 610 q 397 692 397 668 q 369 786 397 740 q 293 832 340 832 l 289 832 q 168 754 224 824 q 113 625 113 685 q 197 554 113 554 l 207 554 z "}," ":{"ha":399,"x_min":0,"x_max":0,"o":""},"!":{"ha":179,"x_min":32,"x_max":164,"o":"m 89 157 q 67 169 75 157 q 44 275 47 201 q 39 328 43 301 q 33 438 33 382 q 41 610 33 524 q 49 781 49 697 q 46 819 49 797 q 43 863 43 840 q 81 933 43 918 q 104 939 94 939 q 164 797 164 939 q 138 311 164 519 l 136 286 q 96 158 131 175 l 89 157 m 89 -7 q 47 13 63 -7 q 32 54 32 32 q 71 107 32 93 q 89 110 81 110 q 130 90 114 110 q 146 46 146 69 q 108 -4 146 8 q 89 -7 99 -7 z "},"\"":{"ha":331,"x_min":3,"x_max":329,"o":"m 51 815 q 19 825 33 815 q 3 857 4 835 q 18 899 3 879 q 39 968 33 925 q 53 1023 43 997 q 89 1058 63 1049 q 107 1061 99 1061 q 149 1040 133 1061 q 165 992 165 1019 q 143 888 165 940 q 68 818 121 835 l 51 815 m 214 815 q 183 825 197 815 q 167 857 168 835 q 182 899 167 879 q 203 968 197 925 q 215 1023 206 997 q 253 1058 225 1049 q 271 1061 263 1061 q 313 1040 296 1061 q 329 992 329 1019 q 306 886 329 938 q 231 818 283 835 q 214 815 222 815 z "},"#":{"ha":753,"x_min":11,"x_max":743,"o":"m 193 -11 q 174 -1 182 -11 q 163 24 167 10 q 147 165 147 93 l 146 194 l 129 190 q 88 183 108 183 q 64 188 75 183 q 31 239 31 207 q 92 301 31 286 q 122 313 108 306 q 154 410 154 329 l 151 497 q 71 476 106 476 q 33 488 49 476 q 11 536 11 501 q 36 583 11 571 q 92 599 61 594 q 136 611 115 603 q 179 721 179 626 q 177 773 179 746 q 175 825 175 800 q 192 911 175 872 q 243 943 213 943 q 278 932 261 943 q 308 836 308 911 q 299 739 308 788 q 289 646 290 690 l 476 663 q 479 743 476 703 q 482 832 482 783 q 485 871 482 856 q 497 897 488 886 q 538 915 517 915 q 593 878 572 915 q 606 792 606 840 q 593 663 606 722 q 708 643 664 663 q 732 613 732 631 q 724 596 732 604 q 656 578 706 582 q 592 557 607 575 q 570 477 575 529 q 565 383 565 425 l 565 360 q 708 335 651 360 q 743 300 743 321 q 696 268 743 275 l 692 268 q 543 256 618 258 q 506 85 538 167 l 504 81 q 492 51 500 67 q 468 35 485 36 q 435 158 435 35 q 444 244 435 204 l 400 244 q 260 218 292 244 q 244 167 244 204 l 244 156 l 242 125 q 213 3 236 39 q 193 -11 203 -11 m 263 343 l 450 365 l 465 547 q 347 535 407 547 l 317 531 q 279 517 288 528 q 261 413 261 490 l 263 343 z "},"$":{"ha":456,"x_min":7,"x_max":417,"o":"m 189 -11 q 149 19 165 -11 q 138 76 138 47 l 140 138 q 71 158 104 140 q 7 261 7 192 q 47 338 7 318 l 54 339 q 69 324 65 339 q 77 292 74 308 q 84 262 81 275 q 93 242 88 249 q 163 219 121 219 q 249 239 207 219 q 301 301 299 263 q 219 367 301 336 l 189 379 q 72 440 128 403 q 15 551 17 478 q 40 635 15 600 q 94 699 64 669 q 149 760 125 728 q 161 815 161 786 l 161 856 q 171 906 161 882 q 222 935 192 935 q 272 906 251 935 q 282 856 282 883 q 281 822 282 838 q 279 793 279 806 q 363 740 325 786 q 400 647 400 694 q 361 579 400 607 q 329 571 346 571 q 290 583 308 571 q 276 633 278 596 q 274 664 276 650 q 250 683 268 683 q 203 659 229 683 q 157 604 176 635 q 138 551 138 574 l 139 543 q 183 499 150 515 q 244 475 215 483 q 329 435 286 461 q 417 304 417 382 q 414 279 417 293 q 383 219 406 240 q 328 183 360 199 q 271 142 297 168 q 249 76 251 114 q 225 8 246 39 q 189 -11 208 -11 z "},"%":{"ha":763,"x_min":50,"x_max":690,"o":"m 153 21 q 132 54 132 21 q 133 74 132 65 q 182 222 147 150 q 433 713 299 472 q 453 756 443 731 q 488 826 468 793 q 561 872 515 872 q 603 824 603 872 q 575 724 603 776 q 275 183 438 446 l 257 150 q 209 65 236 108 q 153 21 182 21 m 207 583 q 93 625 133 583 q 50 739 50 675 q 90 868 50 807 q 196 946 131 929 q 219 949 208 949 q 264 942 243 949 l 297 938 q 356 918 335 935 q 411 796 411 872 q 368 665 411 728 q 207 583 311 583 m 224 697 q 284 737 264 697 q 304 818 304 776 q 296 867 304 844 q 249 843 274 853 q 203 819 224 833 q 180 788 190 810 q 169 744 169 765 q 192 704 169 718 q 224 697 210 697 m 469 -14 q 358 38 394 -14 q 321 154 321 89 q 358 276 321 218 q 467 351 394 333 l 481 353 q 508 349 496 353 q 535 343 521 344 q 565 341 549 342 q 600 336 582 340 q 636 318 618 332 q 690 206 690 267 q 638 72 690 135 q 469 -14 567 -14 m 486 104 q 556 140 529 104 q 582 218 582 175 q 565 276 582 249 q 510 240 546 251 q 468 219 489 236 q 447 186 457 210 q 436 142 436 163 q 486 104 436 104 z "},"&":{"ha":575,"x_min":3,"x_max":574,"o":"m 96 -3 q 30 24 57 -3 q 3 96 3 51 q 35 226 4 163 q 103 347 67 290 q 120 375 113 363 q 139 403 128 388 q 181 486 181 458 q 153 553 181 508 l 140 575 q 88 751 88 679 q 178 900 88 844 q 301 938 239 938 q 383 915 347 938 q 433 839 419 892 q 440 786 440 813 q 417 668 440 726 q 350 531 382 579 q 328 493 338 513 q 317 454 318 474 q 332 408 317 432 q 343 382 339 394 q 400 488 376 428 q 476 611 429 563 q 514 625 494 625 q 554 610 536 625 q 574 568 572 594 q 547 473 574 518 q 486 385 521 428 q 410 256 433 321 q 407 238 407 247 q 417 192 407 215 q 439 146 426 169 q 462 99 451 122 q 472 51 472 75 q 464 18 472 35 l 458 18 q 354 183 390 90 l 343 183 q 253 76 314 128 q 133 4 193 25 q 96 -3 114 -3 m 133 139 q 275 310 275 229 q 256 365 275 336 q 181 259 217 322 q 133 139 146 196 m 250 592 q 292 679 274 633 l 293 682 q 324 782 324 746 q 290 825 324 825 q 240 808 267 825 q 204 776 214 792 q 194 738 194 761 q 212 656 194 699 q 250 592 229 613 z "},"'":{"ha":167,"x_min":3,"x_max":165,"o":"m 50 815 q 19 825 33 815 q 3 857 4 835 q 18 899 3 879 q 39 968 33 925 q 51 1023 42 997 q 89 1058 61 1049 q 107 1061 99 1061 q 149 1040 132 1061 q 165 992 165 1019 q 142 886 165 938 q 67 818 119 835 q 50 815 58 815 z "},"(":{"ha":361,"x_min":18,"x_max":344,"o":"m 218 -8 q 79 126 138 -8 q 18 440 18 267 q 79 760 18 604 q 246 939 135 911 q 271 942 258 942 q 322 928 299 942 q 344 888 344 915 q 340 865 344 878 q 320 837 333 844 q 292 825 307 829 q 210 754 238 811 q 133 432 133 626 q 172 160 133 272 q 242 42 190 107 q 258 10 258 22 q 244 -3 258 1 q 218 -8 231 -8 z "},")":{"ha":332,"x_min":19,"x_max":318,"o":"m 90 -10 q 41 3 63 -10 q 19 46 19 15 q 35 88 21 78 q 68 101 50 97 q 147 171 121 115 q 200 440 200 278 q 167 721 200 585 q 113 849 150 792 l 104 858 q 69 913 69 894 q 77 926 69 919 q 96 932 85 932 q 160 906 126 932 q 272 726 235 849 q 318 442 318 588 q 289 214 318 325 q 160 7 256 68 q 90 -10 129 -10 z "},"*":{"ha":313,"x_min":17,"x_max":285,"o":"m 157 732 q 135 748 143 732 q 122 783 126 764 q 117 811 118 801 l 110 807 q 58 782 79 782 q 35 804 39 782 q 38 819 35 811 q 92 897 50 860 l 92 901 l 86 904 l 49 928 q 17 979 17 950 q 31 1006 17 997 q 63 1014 44 1014 q 100 1004 82 1014 l 101 1022 q 115 1082 104 1064 q 151 1101 132 1101 q 189 1078 174 1101 q 194 1054 194 1067 l 193 1033 l 194 1021 q 218 1047 203 1038 q 249 1056 233 1056 q 285 1017 283 1056 q 276 988 285 1001 q 256 963 267 975 q 238 940 246 951 q 231 915 231 929 q 243 894 232 906 q 269 858 258 878 q 281 822 281 838 q 261 804 281 806 q 227 814 244 804 q 190 832 210 824 l 190 811 q 165 735 190 747 l 157 732 z "},"+":{"ha":438,"x_min":0,"x_max":429,"o":"m 213 68 q 200 71 207 68 q 169 122 176 86 q 165 178 165 151 l 165 192 l 158 274 q 44 271 103 271 q 14 280 26 271 q 0 304 1 289 q 6 328 0 319 q 46 349 19 349 q 99 350 72 349 l 153 350 q 147 510 147 454 q 196 540 164 536 q 240 528 225 540 q 257 508 254 517 q 260 349 260 428 l 279 347 q 406 336 346 347 q 429 317 429 332 q 426 308 429 314 q 382 286 414 290 q 319 282 350 282 q 294 281 304 282 l 258 279 l 254 213 q 240 94 254 157 q 213 68 232 68 z "},",":{"ha":167,"x_min":3,"x_max":165,"o":"m 49 -112 q 3 -71 6 -112 q 18 -29 3 -49 q 39 40 33 -3 q 51 95 42 69 q 89 131 61 121 q 107 133 99 133 q 149 113 132 133 q 165 64 165 92 q 142 -42 165 10 q 67 -110 119 -93 q 49 -112 58 -112 z "},"-":{"ha":557,"x_min":33,"x_max":507,"o":"m 349 246 q 263 249 304 246 q 181 251 221 251 q 140 249 160 251 q 101 246 121 246 q 71 250 86 246 q 33 289 33 267 q 52 326 33 308 q 99 349 71 344 q 211 356 153 356 q 418 335 317 356 q 453 325 432 332 q 490 308 474 318 q 507 286 507 297 q 479 264 507 275 q 349 246 419 246 z "},".":{"ha":181,"x_min":33,"x_max":146,"o":"m 89 -10 q 49 10 65 -10 q 33 54 33 31 q 65 101 33 83 q 89 106 78 106 q 130 87 114 106 q 146 46 146 68 q 110 -6 146 10 q 89 -10 99 -10 z "},"/":{"ha":367,"x_min":7,"x_max":576,"o":"m 32 -7 l 29 -7 q 7 18 7 -7 q 13 46 7 33 q 71 185 36 117 l 86 215 q 322 649 197 435 q 406 800 392 771 q 451 885 425 844 q 536 939 486 939 q 576 897 576 939 q 526 760 576 843 l 458 642 q 178 169 325 401 l 154 131 q 99 44 131 88 q 32 -7 67 0 z "},":":{"ha":385,"x_min":139,"x_max":257,"o":"m 200 488 q 160 506 174 488 q 146 546 146 524 q 157 581 146 565 q 204 603 172 603 q 243 585 229 603 q 257 544 257 567 q 247 510 257 526 q 200 488 232 488 m 196 72 q 154 91 169 72 q 139 132 139 110 q 181 185 139 171 q 196 188 189 188 q 237 167 222 188 q 251 125 251 147 q 243 94 251 108 q 196 72 228 72 z "},";":{"ha":343,"x_min":83,"x_max":247,"o":"m 176 503 q 135 522 150 503 q 119 563 119 540 q 131 596 119 581 q 179 617 146 617 q 219 598 204 617 q 233 557 233 579 q 222 524 233 539 q 176 503 207 503 m 132 38 q 101 47 115 38 q 83 76 86 56 q 99 119 83 100 q 121 190 115 147 q 133 245 124 219 q 171 281 143 271 q 189 283 181 283 q 231 263 214 283 q 247 214 247 242 q 224 108 247 160 q 149 40 201 57 q 132 38 140 38 z "},"<":{"ha":449,"x_min":13,"x_max":440,"o":"m 389 22 q 307 60 360 22 q 197 124 275 81 q 64 203 128 161 q 13 279 13 236 q 18 307 13 292 q 86 379 40 351 q 192 468 131 410 q 338 582 260 538 q 369 590 354 590 q 419 571 397 590 q 440 521 440 551 q 417 468 440 492 q 382 436 401 451 l 321 388 q 200 274 251 338 q 392 111 315 217 q 418 51 418 78 q 406 26 418 36 q 389 22 397 22 z "},"=":{"ha":354,"x_min":14,"x_max":338,"o":"m 99 351 q 49 358 71 351 q 14 413 14 379 q 38 458 14 439 q 83 474 57 471 q 135 476 110 476 q 181 479 160 476 l 203 481 q 259 476 228 481 q 314 459 290 471 q 338 426 338 447 l 336 415 q 289 377 325 388 q 219 364 253 367 l 171 357 q 99 351 133 351 m 140 126 q 57 138 93 126 q 19 190 19 158 q 32 228 19 211 q 68 251 44 244 q 142 258 101 258 q 294 235 222 258 q 332 196 332 219 q 289 149 332 168 q 140 126 219 126 z "},">":{"ha":450,"x_min":10,"x_max":438,"o":"m 60 31 q 43 35 51 31 q 31 58 31 44 q 57 119 31 83 q 249 282 133 225 q 146 371 211 328 q 60 438 99 403 q 11 517 21 474 l 10 531 q 31 580 10 561 q 79 599 51 599 q 111 590 94 599 q 257 476 189 546 q 360 389 315 419 q 431 315 407 361 q 438 286 438 300 q 422 243 438 263 q 254 133 396 210 q 142 68 174 90 q 60 31 89 31 z "},"?":{"ha":415,"x_min":8,"x_max":411,"o":"m 194 163 q 165 236 165 164 q 169 301 165 272 l 171 315 q 268 682 189 504 q 294 768 294 738 q 282 804 294 788 q 249 821 269 821 q 198 806 224 821 q 158 776 172 790 q 138 742 143 761 q 128 704 132 724 q 119 667 125 685 q 99 636 114 649 q 61 619 78 619 q 21 653 33 619 q 8 719 8 688 q 10 743 8 732 q 88 874 26 824 q 228 936 150 924 q 256 939 242 939 q 367 892 324 939 q 411 775 411 844 q 386 647 410 708 q 335 526 363 585 q 258 314 282 421 q 194 163 229 168 m 206 -7 q 166 13 181 -7 q 151 54 151 32 q 189 104 151 92 q 207 107 199 107 q 247 88 232 107 q 263 47 263 69 q 222 -4 263 8 q 206 -7 214 -7 z "},"@":{"ha":843,"x_min":35,"x_max":815,"o":"m 381 19 q 197 75 275 19 q 77 222 119 131 q 35 417 35 314 q 62 587 35 503 q 142 736 89 671 q 285 849 203 810 q 456 889 368 889 q 590 863 525 889 q 709 779 656 836 q 789 646 763 722 q 815 489 815 569 q 721 235 815 329 q 625 192 678 192 q 542 229 583 192 q 488 335 500 275 q 464 400 479 368 q 415 306 450 353 q 338 238 381 260 q 293 226 314 226 q 228 258 254 226 q 200 333 203 289 l 200 358 q 227 529 200 442 q 315 674 254 617 q 438 719 372 719 q 526 692 486 719 q 582 608 567 665 q 585 585 585 596 q 581 549 585 567 q 576 510 576 531 q 624 311 576 422 q 674 375 658 338 q 696 493 696 433 q 663 631 696 565 q 572 739 629 697 q 444 781 515 781 q 354 761 401 781 q 190 608 250 714 q 131 389 131 503 q 167 232 131 306 q 282 113 203 158 q 393 83 339 83 q 521 104 439 83 l 553 113 l 553 106 q 520 55 553 74 q 447 28 488 36 q 381 19 406 19 m 326 389 l 447 603 q 358 539 397 597 q 319 425 319 481 q 326 389 319 406 z "},"A":{"ha":614,"x_min":10,"x_max":611,"o":"m 142 -3 q 103 12 119 -3 q 82 51 86 26 q 78 104 78 76 q 114 338 78 200 q 82 335 99 335 q 10 385 10 335 q 38 438 10 424 q 83 454 58 449 q 119 465 103 458 q 174 565 156 481 l 183 597 q 335 876 244 775 q 471 947 394 943 q 542 915 515 947 q 579 840 569 882 q 589 753 589 797 q 579 631 589 692 q 569 510 569 571 l 569 499 q 590 467 571 481 q 611 438 610 453 l 611 435 q 560 404 611 406 q 540 168 560 322 q 499 3 518 3 q 474 85 476 3 q 467 399 467 264 l 294 379 q 244 360 258 376 q 226 299 231 344 l 221 268 q 203 100 203 174 q 199 51 203 75 q 178 13 196 28 q 142 -3 160 -3 m 274 499 l 467 504 q 473 601 467 547 q 479 710 479 656 q 461 824 479 771 q 344 676 388 767 q 274 499 300 585 z "},"B":{"ha":661,"x_min":18,"x_max":638,"o":"m 364 3 q 257 38 306 3 q 208 132 208 72 q 214 171 208 150 l 225 171 l 232 157 q 261 108 244 131 q 343 69 290 69 q 445 110 396 69 q 526 207 494 150 q 558 314 558 264 l 557 329 q 518 406 550 383 q 444 429 486 429 q 318 390 379 429 q 254 365 283 365 q 215 390 231 365 q 208 418 208 404 q 242 479 208 454 q 274 500 257 490 q 307 522 292 510 q 384 614 344 553 q 424 733 424 675 q 374 818 424 790 q 354 824 364 824 q 261 724 307 824 q 188 483 211 617 q 163 294 172 389 l 149 188 l 146 154 q 135 78 144 115 q 93 29 125 40 q 78 26 85 26 q 21 179 21 26 l 21 222 q 24 478 21 350 q 26 733 26 606 q 22 779 26 751 q 18 842 18 811 q 22 882 18 864 q 40 912 26 900 q 68 924 53 924 q 117 885 100 924 q 126 801 126 843 l 126 753 q 131 694 126 724 l 136 694 q 202 846 149 769 q 329 944 256 922 q 361 949 346 949 q 450 913 414 949 q 505 824 486 876 q 524 721 524 771 l 522 700 q 463 536 510 611 q 594 460 550 522 q 638 317 638 397 q 551 101 638 197 q 418 11 493 38 q 364 3 392 3 z "},"C":{"ha":588,"x_min":15,"x_max":588,"o":"m 290 -3 q 156 43 226 -3 q 36 254 65 108 q 15 444 15 347 q 33 612 15 529 q 91 766 51 694 q 195 890 131 838 q 338 942 260 942 q 426 921 381 942 q 505 835 486 890 q 524 719 524 781 q 521 643 524 681 l 519 619 q 500 564 518 589 q 453 539 482 539 q 422 549 438 539 q 401 572 406 558 q 396 600 396 585 l 397 635 l 400 663 q 406 729 406 696 q 399 779 406 756 q 374 819 392 803 q 336 836 356 836 q 239 776 289 836 q 140 457 140 661 q 158 276 140 361 q 181 203 165 242 q 224 138 197 165 q 292 110 251 110 l 304 111 q 422 183 376 124 q 499 303 468 243 q 515 339 508 319 q 561 404 536 389 l 569 406 q 583 400 578 406 q 588 388 588 394 q 548 215 586 304 q 443 61 510 125 q 290 -3 376 -3 z "},"D":{"ha":614,"x_min":7,"x_max":563,"o":"m 82 0 q 46 13 63 0 q 24 46 29 25 q 15 169 18 67 q 9 409 11 271 q 7 665 7 547 q 13 879 7 863 q 65 917 33 917 q 117 885 96 917 q 131 781 131 856 l 129 736 q 226 879 154 815 q 375 943 297 943 q 501 868 451 943 q 563 638 563 772 q 442 263 563 435 q 344 153 397 199 q 215 107 290 107 q 140 119 181 107 l 142 82 q 129 26 142 51 q 82 0 108 0 m 185 176 q 265 203 226 176 q 331 263 304 231 q 424 433 394 339 q 454 629 454 528 q 424 785 454 722 q 368 826 404 825 q 258 731 315 826 q 180 558 206 647 q 138 365 154 469 q 131 278 131 318 q 174 176 131 183 l 185 176 z "},"E":{"ha":660,"x_min":43,"x_max":656,"o":"m 342 3 q 251 28 293 3 q 192 122 206 61 q 179 247 179 182 l 181 349 q 179 389 181 371 q 121 381 156 381 q 67 389 92 381 q 43 419 43 397 q 57 454 43 433 q 179 500 86 493 l 182 668 q 178 767 182 725 q 175 819 175 793 q 204 913 175 881 q 296 944 233 944 q 465 908 367 944 l 474 906 q 551 840 551 885 q 533 803 551 818 q 490 788 515 788 q 397 808 449 790 q 289 831 332 831 l 294 511 q 456 483 390 510 q 501 431 500 465 q 484 409 501 413 q 454 406 467 406 l 382 408 q 307 394 338 408 q 293 356 293 385 l 294 329 q 292 274 294 306 q 289 211 289 243 q 301 131 289 167 q 349 100 314 100 q 383 104 365 100 q 578 197 486 128 q 642 231 621 231 q 656 214 654 231 q 594 121 656 178 l 588 114 q 477 37 544 71 q 342 3 410 3 z "},"F":{"ha":579,"x_min":17,"x_max":569,"o":"m 243 -1 q 204 13 222 -1 q 182 51 186 26 q 178 129 178 89 q 185 274 178 200 q 192 415 192 347 l 175 410 q 133 401 154 401 q 92 419 107 401 q 78 457 78 438 q 136 515 78 499 q 169 529 154 521 q 196 636 196 544 q 193 710 196 672 q 190 781 190 747 l 192 811 q 154 797 174 806 q 75 775 103 775 q 31 794 46 775 q 17 832 17 813 q 33 869 17 853 q 154 925 79 908 q 292 949 258 949 q 349 951 319 951 q 507 925 429 951 q 530 915 517 921 q 553 899 543 908 q 564 878 564 889 q 560 864 564 871 q 533 849 551 851 q 500 844 515 846 q 399 839 454 844 q 293 835 353 835 l 303 558 q 382 565 342 565 q 507 549 444 565 q 568 508 557 536 l 569 500 q 513 468 569 472 q 413 457 463 460 q 358 453 363 454 q 311 431 322 453 q 306 393 306 414 q 307 360 306 376 q 308 242 308 344 q 303 107 308 175 l 303 78 q 290 25 303 50 q 243 -1 271 -1 z "},"G":{"ha":540,"x_min":10,"x_max":532,"o":"m 215 -1 q 190 1 203 -1 q 125 39 144 11 q 106 101 106 67 q 150 219 106 161 q 253 278 194 278 q 262 274 258 278 q 265 265 265 269 q 231 217 265 254 q 186 151 203 188 q 181 124 181 139 q 188 93 181 107 q 214 79 196 79 q 265 104 236 79 q 346 268 333 167 q 356 408 356 340 l 356 444 q 285 375 317 415 q 217 305 253 335 q 128 271 181 275 q 59 294 85 271 q 22 354 33 318 q 10 426 10 390 q 11 456 10 442 q 65 699 24 578 q 207 901 106 819 q 336 947 272 947 q 450 906 399 947 q 519 792 501 865 q 532 714 532 754 q 522 672 532 690 q 471 646 500 646 q 422 672 443 646 q 407 737 410 697 q 393 808 404 776 q 340 839 382 839 q 218 743 276 839 q 148 569 167 658 q 129 385 129 481 q 232 490 188 424 q 292 562 260 529 q 367 608 324 594 q 390 613 379 613 q 438 586 422 613 q 467 410 467 536 q 447 242 467 328 q 379 92 426 157 q 308 26 351 54 q 215 -1 264 -1 z "},"H":{"ha":631,"x_min":13,"x_max":621,"o":"m 542 -1 q 506 85 514 -1 l 504 90 q 475 407 475 249 l 250 407 q 251 313 250 360 q 253 219 253 267 q 249 101 253 160 l 249 92 q 221 0 249 15 l 213 -1 q 179 47 192 -1 q 133 378 133 215 l 121 375 q 67 365 93 365 q 33 376 47 365 q 13 426 13 390 q 31 467 13 456 q 70 483 49 478 q 108 497 92 489 q 131 521 124 504 q 139 586 139 550 l 139 606 q 140 644 139 626 q 142 668 142 656 q 182 910 149 826 q 240 947 206 947 q 271 938 257 947 q 290 910 285 929 q 296 872 296 892 q 278 771 296 825 q 265 706 269 735 l 250 531 q 475 497 371 531 q 479 625 479 558 l 479 658 q 504 882 479 776 q 528 915 511 903 q 563 926 544 926 q 596 915 581 926 q 616 883 611 904 q 621 838 621 861 q 611 740 621 790 q 599 485 599 653 q 588 203 599 343 q 586 153 586 192 q 588 121 588 138 q 551 1 588 24 q 542 -1 546 -1 z "},"I":{"ha":421,"x_min":11,"x_max":379,"o":"m 72 3 q 32 15 46 4 q 11 58 11 31 q 31 99 11 86 q 75 118 51 111 q 116 135 99 125 q 138 164 133 144 q 142 232 142 196 q 137 338 142 283 q 132 439 132 392 q 140 635 132 538 q 149 831 149 733 q 126 828 138 828 q 81 842 101 828 q 60 879 60 856 q 72 910 60 893 q 106 934 85 928 q 146 942 126 940 l 154 943 q 232 950 193 950 q 331 929 283 950 q 367 893 367 910 q 333 858 367 872 q 269 842 299 843 l 221 153 q 272 149 233 153 q 345 135 311 146 q 379 100 379 124 q 311 54 379 63 l 267 47 q 131 18 176 38 q 72 3 101 3 z "},"J":{"ha":543,"x_min":65,"x_max":515,"o":"m 243 3 q 175 17 210 3 q 65 182 65 63 q 94 310 65 246 q 165 418 122 374 q 300 501 240 501 q 318 499 310 501 q 335 483 335 493 q 292 433 335 467 q 203 328 254 403 q 161 208 161 267 q 197 135 161 165 q 242 119 219 119 q 326 167 289 119 q 375 258 363 215 q 392 404 392 329 l 390 496 l 392 611 q 368 821 392 738 q 319 744 332 788 q 278 671 307 700 q 242 656 260 656 q 201 674 218 656 q 183 719 183 692 q 214 818 186 765 q 284 911 242 871 q 374 951 326 951 q 450 914 413 951 q 498 803 489 868 q 507 681 507 739 q 511 558 507 624 q 515 426 515 493 q 505 285 515 354 q 463 154 494 217 q 372 47 432 92 q 243 3 313 3 z "},"K":{"ha":449,"x_min":10,"x_max":449,"o":"m 390 4 q 356 76 364 4 l 353 111 q 324 292 347 201 q 308 333 319 311 q 274 354 297 354 q 192 319 238 350 q 132 258 147 289 q 119 178 121 222 q 115 126 119 150 l 114 119 q 72 10 106 10 q 47 29 56 11 q 26 179 28 75 l 25 214 q 10 560 10 385 q 21 776 10 671 l 22 801 l 22 838 q 31 907 22 874 q 74 949 39 940 l 85 950 q 128 928 111 950 q 144 881 144 906 l 140 711 q 135 507 135 610 q 200 600 172 544 q 265 750 240 681 q 285 796 274 774 q 344 842 307 842 q 385 822 368 842 q 401 776 401 801 l 400 760 q 261 479 353 608 q 387 430 347 479 q 438 309 426 381 q 449 169 449 238 q 399 6 449 28 l 390 4 z "},"L":{"ha":368,"x_min":17,"x_max":351,"o":"m 185 -6 q 98 41 132 -6 q 50 143 64 88 q 17 428 17 283 q 33 715 17 572 l 35 731 q 49 849 36 782 q 129 944 67 944 q 167 922 156 944 q 178 872 178 899 q 174 838 178 854 q 133 457 133 649 q 142 286 133 371 l 144 253 q 174 110 146 176 q 200 92 185 92 q 236 108 217 92 q 274 142 256 124 q 333 179 311 179 q 347 170 343 179 q 351 153 351 161 q 330 97 351 128 q 282 40 308 65 q 185 -6 232 -6 z "},"M":{"ha":664,"x_min":6,"x_max":642,"o":"m 603 -1 q 589 6 594 -1 q 565 181 575 38 q 547 488 554 324 q 539 749 540 651 l 525 714 q 451 536 483 617 q 382 324 400 408 q 366 273 374 290 q 340 246 358 256 q 306 236 322 236 q 233 293 257 236 q 167 521 204 369 l 132 665 l 129 588 q 125 458 125 524 q 135 292 125 397 q 147 103 147 196 q 145 57 147 81 q 126 17 143 33 q 86 1 108 1 q 49 16 68 1 q 26 60 31 31 q 21 119 21 90 q 21 176 21 149 q 6 501 6 339 q 11 649 6 575 q 22 771 14 707 q 57 888 31 835 q 132 946 86 946 q 174 929 151 946 q 210 872 199 907 q 228 799 219 844 q 307 489 272 578 l 367 643 q 447 815 400 732 l 458 835 q 547 940 507 926 q 579 946 565 946 q 631 909 619 946 q 642 819 642 872 l 640 710 q 638 453 640 600 q 629 177 635 306 q 615 8 624 49 q 603 -1 611 -1 z "},"N":{"ha":571,"x_min":10,"x_max":564,"o":"m 463 -3 q 439 1 451 -3 q 378 73 400 18 q 343 178 356 128 l 335 208 q 229 607 276 404 q 185 775 189 775 q 181 771 182 775 q 132 250 136 554 q 135 185 132 224 q 138 107 138 146 q 131 39 138 67 q 75 1 110 1 q 25 33 46 1 q 10 128 10 76 l 11 215 l 10 307 q 42 722 10 517 q 61 813 47 763 q 101 903 75 864 q 176 943 128 943 l 192 942 q 274 876 244 929 q 382 503 328 772 q 446 244 408 376 q 450 240 447 240 q 454 244 454 240 q 474 525 471 383 q 488 757 476 642 l 490 790 q 511 926 497 878 q 533 943 519 943 q 550 938 543 943 q 564 821 564 926 q 561 706 564 761 q 557 549 557 625 l 558 338 q 547 125 558 201 q 463 -3 529 -3 z "},"O":{"ha":574,"x_min":25,"x_max":561,"o":"m 272 -8 q 180 24 219 -8 q 114 105 140 57 q 72 200 88 153 q 25 497 25 343 q 79 774 25 643 q 240 940 140 913 q 263 943 253 943 q 292 936 281 943 q 314 919 304 929 q 393 886 339 896 q 436 876 415 883 q 478 851 457 869 q 529 769 513 818 q 561 536 561 671 q 506 228 561 378 q 307 -4 436 31 q 272 -8 289 -8 m 274 124 q 390 267 340 136 q 458 592 458 425 q 454 678 458 635 q 328 831 442 831 l 307 829 q 175 696 217 814 q 143 494 143 599 q 169 296 143 390 l 174 279 q 192 215 181 251 q 222 151 203 179 q 268 124 240 124 l 274 124 z "},"P":{"ha":513,"x_min":8,"x_max":490,"o":"m 101 -3 q 79 1 90 -3 q 36 65 46 18 q 25 160 26 113 l 22 201 q 8 436 8 318 q 11 586 8 511 l 13 664 q 11 723 13 694 q 10 781 10 751 q 22 879 10 833 q 71 918 36 918 q 116 898 94 918 q 138 847 138 878 q 135 829 138 839 q 186 874 163 850 q 294 946 228 924 q 331 950 313 950 q 463 846 417 950 q 490 718 490 782 q 452 556 490 639 q 347 417 414 474 q 197 361 281 361 q 146 367 172 361 q 155 237 146 304 q 164 106 164 169 q 161 53 164 79 q 141 13 158 28 q 101 -3 124 -3 m 172 428 q 321 518 260 438 q 389 681 382 599 l 389 696 q 384 749 389 718 q 367 803 379 781 q 329 826 354 826 q 249 768 286 824 q 158 543 174 667 l 156 526 q 147 465 147 496 q 172 428 147 428 z "},"Q":{"ha":646,"x_min":14,"x_max":590,"o":"m 486 -7 q 431 23 467 -7 q 381 53 396 53 q 311 28 356 50 q 267 8 289 17 q 219 0 244 0 q 182 6 201 0 q 39 189 74 38 q 14 400 14 292 q 60 690 14 549 q 221 922 114 864 q 300 943 260 943 q 381 872 372 943 q 506 815 460 861 q 590 560 590 732 q 542 288 590 417 q 508 222 528 254 q 474 156 488 190 l 472 144 q 497 87 472 125 q 522 29 522 49 q 511 5 522 17 q 486 -7 500 -7 m 229 125 q 275 135 253 125 q 307 175 307 149 q 284 238 307 203 q 261 303 261 274 q 279 344 263 329 q 317 360 296 360 q 351 346 335 360 q 386 285 376 321 l 396 261 q 432 310 418 281 q 497 572 497 446 q 481 685 497 629 q 424 783 463 746 q 326 819 385 819 q 286 815 307 819 q 186 690 224 797 q 133 399 133 547 q 142 282 133 339 l 143 267 q 158 192 147 231 q 199 132 169 153 q 229 125 211 125 z "},"R":{"ha":513,"x_min":14,"x_max":508,"o":"m 83 3 q 35 32 50 3 q 17 99 21 61 q 14 178 14 138 l 15 442 l 15 519 q 29 871 15 813 q 97 944 46 944 q 143 907 129 944 q 147 867 147 886 q 140 803 147 835 q 128 689 128 763 l 129 656 q 181 771 144 718 q 250 864 206 818 q 344 910 294 910 q 424 865 385 910 q 451 815 440 843 q 474 693 474 758 q 434 519 474 604 q 317 386 394 433 l 340 369 q 506 217 469 269 q 508 210 508 213 q 503 198 508 203 q 493 193 499 193 l 489 194 q 408 238 449 210 q 368 263 385 254 q 314 292 340 276 q 217 339 268 321 q 185 381 185 350 q 254 457 185 414 q 303 496 285 476 q 363 668 363 568 q 343 799 363 732 l 332 799 q 288 718 313 757 q 179 414 210 589 q 151 204 161 311 q 150 183 150 194 l 151 156 l 151 121 q 142 49 151 82 q 101 6 133 15 q 83 3 92 3 z "},"S":{"ha":582,"x_min":33,"x_max":504,"o":"m 258 -1 q 110 45 176 -1 q 33 182 43 92 q 42 244 33 208 q 106 335 61 335 q 128 317 128 335 q 124 292 128 306 l 108 238 q 132 156 108 189 q 244 99 171 99 q 322 120 285 99 q 375 182 360 142 q 382 218 382 200 q 276 397 382 296 l 235 438 q 156 518 193 476 q 65 706 65 615 q 93 810 65 754 q 271 946 158 921 q 306 949 289 949 q 403 910 369 949 q 451 813 438 871 q 464 700 464 756 l 464 672 q 444 620 461 643 q 400 597 428 597 q 382 600 392 597 q 339 647 347 613 q 333 708 333 676 l 332 763 q 328 799 332 781 q 292 824 321 824 q 231 785 258 824 q 194 701 194 736 q 224 626 194 660 q 283 565 253 592 q 393 458 339 519 q 504 221 504 332 q 461 93 504 157 q 397 35 436 58 q 258 -1 336 -1 z "},"T":{"ha":646,"x_min":13,"x_max":640,"o":"m 296 -3 q 267 38 274 -3 q 258 156 261 79 l 257 185 q 254 321 254 253 l 257 593 q 255 658 257 624 q 253 726 253 692 q 263 825 253 778 q 184 815 229 825 q 97 804 139 804 q 49 813 71 804 q 13 865 13 832 q 38 913 13 892 q 157 938 72 935 l 186 940 q 322 944 254 944 q 533 931 428 944 l 547 929 q 639 889 626 922 l 640 883 q 426 829 640 838 l 374 825 q 379 758 379 793 q 376 688 379 724 q 374 621 374 653 l 375 463 q 360 185 375 322 l 356 157 q 332 40 350 96 q 296 -3 319 -3 z "},"U":{"ha":599,"x_min":24,"x_max":565,"o":"m 174 7 q 125 22 149 7 q 81 74 101 38 q 51 151 61 111 q 24 368 24 256 q 75 729 24 539 q 149 917 96 831 q 199 944 171 944 q 238 926 221 944 q 256 882 256 907 q 243 822 256 854 q 215 758 231 789 q 190 696 199 722 q 149 386 149 542 q 174 168 149 276 q 189 157 176 157 q 201 163 196 157 q 289 316 257 231 q 346 490 321 401 q 393 642 367 569 l 407 688 q 447 807 422 746 q 518 883 476 883 q 565 786 565 883 q 554 667 565 739 q 533 440 546 615 q 509 169 522 294 q 481 25 496 43 q 472 22 476 22 q 461 31 465 22 q 454 48 457 39 q 451 63 451 57 q 440 233 440 150 q 439 299 440 261 q 436 364 438 336 l 435 393 q 375 217 417 303 l 361 183 q 315 105 344 146 q 248 35 285 64 q 174 7 211 7 z "},"V":{"ha":486,"x_min":11,"x_max":481,"o":"m 196 3 l 188 3 q 129 32 151 3 q 81 175 97 79 l 78 186 q 33 586 43 385 q 19 735 25 696 q 11 836 11 788 q 18 890 11 868 q 41 924 25 913 q 75 935 57 935 q 121 910 101 935 q 142 786 142 875 q 147 604 142 715 q 196 238 160 324 q 256 494 213 368 l 267 529 q 431 919 336 778 q 465 949 451 949 q 481 925 481 949 q 476 897 481 911 l 475 890 q 440 774 460 831 l 432 750 q 303 193 350 476 q 196 3 279 21 z "},"W":{"ha":679,"x_min":11,"x_max":657,"o":"m 103 3 q 28 57 56 3 q 11 151 11 101 q 17 238 11 194 l 19 267 q 103 757 43 515 l 107 776 q 204 944 143 944 q 242 927 226 944 q 258 883 258 910 q 215 689 251 792 q 185 575 196 628 l 176 531 q 146 304 146 385 l 151 304 q 272 592 186 461 q 338 632 303 632 q 397 592 371 632 q 417 489 417 557 l 415 410 q 454 150 415 272 q 569 506 558 268 q 575 690 575 607 q 586 935 575 789 q 600 949 588 949 q 608 944 606 949 q 636 806 617 939 q 657 500 657 654 q 634 277 657 388 q 546 85 611 167 q 447 33 500 33 q 364 85 400 33 q 300 360 300 194 l 294 360 q 211 118 261 236 l 206 106 q 156 22 190 56 q 103 3 129 3 z "},"X":{"ha":568,"x_min":10,"x_max":564,"o":"m 28 0 q 11 15 17 0 l 10 29 q 38 119 10 58 q 100 272 50 144 q 163 426 150 400 q 190 504 185 468 q 163 561 190 526 l 151 576 q 104 639 131 607 q 22 764 49 699 q 18 785 18 774 q 36 828 18 810 q 78 847 54 847 q 110 838 93 847 q 207 719 167 792 q 260 643 232 678 q 311 763 275 704 q 353 849 336 808 q 396 924 371 889 q 440 946 415 946 q 480 930 461 946 q 500 882 499 914 q 473 810 500 856 q 404 672 446 765 q 363 588 372 606 q 340 528 340 549 q 382 446 342 499 q 401 418 393 432 q 535 168 476 300 q 564 68 564 106 q 547 33 564 33 q 521 47 536 33 q 493 76 506 61 q 476 97 481 90 q 417 175 449 135 q 282 383 331 275 l 271 383 q 107 69 213 215 q 89 46 103 63 q 58 15 75 29 q 28 0 42 0 z "},"Y":{"ha":536,"x_min":17,"x_max":529,"o":"m 217 -6 q 162 10 186 -6 q 126 52 138 26 q 115 106 115 78 q 130 169 115 139 q 171 217 144 200 q 186 222 181 222 q 201 203 200 222 q 196 176 201 196 q 183 117 183 138 q 213 82 183 82 l 215 82 q 317 178 267 89 q 414 536 413 344 l 408 536 q 324 399 376 460 q 172 317 250 317 q 99 342 133 317 q 44 421 65 367 q 17 592 17 504 q 46 801 17 699 l 51 826 q 65 878 57 851 q 92 922 74 904 q 133 939 110 939 q 182 911 163 939 q 189 876 189 896 q 167 779 189 843 q 140 615 140 704 q 165 438 140 526 q 286 550 242 465 q 356 715 331 635 l 375 768 q 399 826 383 799 q 444 853 414 853 q 469 849 456 853 q 519 771 510 831 q 529 661 529 711 l 529 625 q 510 404 529 526 q 440 177 492 282 q 293 15 389 72 q 217 -6 257 -6 z "},"Z":{"ha":599,"x_min":22,"x_max":578,"o":"m 106 1 q 26 46 44 1 q 22 71 22 58 q 47 147 22 107 q 101 221 72 186 l 131 261 l 344 581 q 417 696 393 653 q 457 807 447 750 q 357 792 408 804 q 254 781 306 781 l 236 782 q 195 805 210 785 q 181 850 181 825 l 182 863 q 215 907 189 896 q 272 922 242 918 l 303 928 q 438 943 367 943 q 519 929 483 943 q 578 819 578 907 q 556 709 578 765 q 508 608 535 653 q 347 366 435 483 q 186 124 260 249 l 286 133 q 468 146 376 146 l 492 146 q 531 141 511 146 q 553 119 551 136 q 443 64 553 85 l 435 63 q 138 4 288 22 q 106 1 122 1 z "},"[":{"ha":346,"x_min":11,"x_max":333,"o":"m 144 -40 q 74 -21 104 -40 q 11 238 11 19 l 14 390 l 11 603 q 43 931 11 801 q 99 985 54 968 q 194 1003 143 1003 q 267 993 233 1003 q 321 965 301 983 q 333 938 333 951 q 324 910 333 922 q 300 890 314 897 q 189 869 261 869 l 151 869 q 133 600 136 735 q 129 329 129 465 q 126 248 129 289 q 122 165 122 207 q 129 89 122 128 q 199 50 136 50 q 236 52 218 50 q 275 54 254 54 q 307 51 294 54 q 319 38 319 49 l 318 32 q 229 -26 307 -7 q 144 -40 185 -40 z "},"\\":{"ha":635,"x_min":58,"x_max":628,"o":"m 606 -7 q 538 43 572 -6 q 482 131 506 86 l 458 169 q 144 697 293 429 l 110 760 q 58 897 58 843 q 100 939 58 939 q 185 883 150 939 q 232 796 213 840 q 317 642 246 765 q 550 215 439 432 l 565 185 q 624 46 600 117 q 628 19 628 33 q 606 -7 628 -7 z "},"]":{"ha":340,"x_min":4,"x_max":329,"o":"m 142 -31 q 4 32 4 -31 q 19 72 4 60 q 58 87 35 83 q 107 91 81 90 q 156 96 133 92 q 186 115 178 100 q 203 215 203 161 l 200 292 l 201 318 q 207 508 207 413 l 206 699 q 210 755 207 725 q 213 818 213 785 q 203 885 213 853 q 133 917 194 917 q 95 915 113 917 q 68 914 78 914 l 47 913 q 15 935 15 913 q 107 994 15 971 q 188 1007 158 1007 q 317 847 310 1007 l 319 793 q 329 468 329 632 q 315 197 329 331 q 311 146 313 172 q 289 31 308 82 q 194 -29 269 -21 q 142 -31 174 -31 z "},"^":{"ha":1408,"x_min":0,"x_max":0,"o":""},"_":{"ha":588,"x_min":35,"x_max":535,"o":"m 226 0 q 104 7 163 0 q 55 27 75 11 q 35 60 35 43 q 75 96 35 82 q 107 100 90 100 q 147 97 126 100 q 185 94 167 94 q 273 97 225 94 q 369 100 321 100 q 506 85 443 100 q 535 64 535 74 q 517 44 535 53 q 478 28 500 35 q 442 18 456 21 q 226 0 338 0 z "},"`":{"ha":694,"x_min":0,"x_max":0,"o":""},"a":{"ha":611,"x_min":44,"x_max":603,"o":"m 529 -12 q 510 -2 519 -12 q 495 19 501 8 q 486 38 489 31 q 446 233 446 136 q 401 176 422 206 q 319 79 365 124 q 240 24 286 49 q 151 0 194 0 q 44 165 44 0 q 87 367 44 263 q 203 544 129 472 q 371 615 276 615 q 483 586 425 615 q 546 626 511 626 q 585 611 568 626 q 603 565 603 596 l 601 554 q 572 386 592 468 q 550 268 560 328 q 540 144 540 208 q 544 104 540 131 q 551 36 551 68 q 540 -7 551 7 q 529 -12 535 -12 m 176 140 q 279 229 235 169 q 357 350 324 289 l 383 393 q 413 456 413 433 q 401 477 413 468 q 376 486 390 486 q 281 431 333 486 q 176 140 176 322 z "},"b":{"ha":700,"x_min":36,"x_max":676,"o":"m 107 -6 q 67 10 85 -6 q 42 48 49 25 q 36 97 36 71 q 41 165 36 132 q 46 222 46 199 q 48 503 46 374 q 50 785 50 632 q 47 823 50 803 q 44 863 44 843 q 58 914 44 892 q 110 943 71 936 l 125 944 q 167 928 154 944 q 183 887 179 911 q 188 838 188 863 l 189 821 q 192 753 192 779 l 190 639 q 189 573 190 594 q 188 529 188 551 q 197 456 188 492 q 302 576 232 531 q 450 621 372 621 q 606 556 542 621 q 676 365 676 479 q 626 183 676 269 q 506 65 582 110 q 419 28 475 47 q 310 8 363 8 q 226 42 251 8 q 222 53 222 47 q 294 81 222 72 l 310 83 q 461 154 394 103 q 554 290 528 206 q 560 342 560 314 q 549 410 560 376 q 515 467 539 444 q 453 490 492 490 q 322 399 388 489 q 252 280 276 340 q 211 159 228 219 q 172 39 194 99 q 107 -6 149 -6 z "},"c":{"ha":493,"x_min":36,"x_max":488,"o":"m 249 1 q 118 51 179 1 q 36 275 36 129 q 94 515 36 406 q 268 629 161 629 q 351 608 308 629 q 423 539 393 586 q 453 442 453 492 q 424 374 453 393 q 385 363 406 363 q 335 385 357 363 q 317 432 319 406 q 304 471 314 453 q 267 496 289 496 q 239 483 253 496 q 188 392 203 449 q 172 281 172 336 q 179 205 172 240 q 209 142 186 169 q 271 114 232 114 q 422 196 356 118 l 435 208 q 472 228 460 228 q 488 203 488 228 q 486 189 488 194 q 398 54 467 107 q 249 1 329 1 z "},"d":{"ha":604,"x_min":0,"x_max":565,"o":"m 107 -6 q 26 43 63 -6 q 3 109 7 74 q 0 179 0 144 q 33 374 0 278 q 138 544 67 469 q 308 622 214 622 q 419 586 364 622 q 432 717 432 651 l 432 783 l 431 839 q 449 915 431 879 q 501 943 472 943 q 532 936 518 943 q 551 918 546 929 q 565 842 565 882 q 563 788 565 814 q 560 742 561 763 q 549 528 556 631 q 536 233 536 389 l 536 200 q 510 68 536 108 q 446 38 490 39 q 378 114 389 38 q 368 254 369 183 q 358 394 367 325 l 357 403 q 351 446 356 422 q 299 504 339 504 q 236 474 263 500 q 121 272 157 392 q 97 146 97 196 q 110 97 97 110 q 133 90 119 90 q 251 133 175 90 l 256 136 q 333 196 308 169 q 339 199 336 199 q 342 197 340 199 q 344 192 344 194 q 304 122 333 153 l 297 114 q 213 35 265 76 q 107 -6 160 -6 z "},"e":{"ha":519,"x_min":42,"x_max":494,"o":"m 217 -7 q 113 36 163 -7 q 42 253 42 106 q 110 532 42 408 q 183 606 138 576 q 278 636 228 636 q 347 618 311 636 q 399 565 382 600 q 415 486 415 529 q 389 364 415 426 q 319 259 363 301 q 225 217 275 217 q 175 229 200 217 q 183 166 178 199 q 201 119 188 133 q 232 106 214 106 q 318 147 269 106 q 399 222 367 189 l 421 244 q 472 278 451 278 q 487 272 479 278 q 494 253 494 267 q 438 132 494 211 q 339 34 397 75 q 217 -7 281 -7 m 181 318 q 250 388 221 339 q 279 483 279 438 q 276 507 279 496 q 206 431 224 486 q 181 318 190 386 z "},"f":{"ha":508,"x_min":22,"x_max":507,"o":"m 239 -392 q 213 -371 224 -392 q 189 -292 193 -333 q 163 75 163 -136 q 78 46 114 46 q 26 88 39 46 q 22 113 22 101 q 42 158 22 142 q 89 189 63 175 q 127 212 110 199 q 151 244 144 225 q 158 285 158 263 l 157 346 l 158 369 q 178 547 161 454 q 247 704 194 640 q 343 744 289 744 q 455 706 403 744 q 507 604 507 667 q 465 540 507 540 q 399 565 435 540 q 346 610 364 589 q 305 481 322 553 q 288 342 288 410 q 294 269 288 304 q 335 274 311 274 q 406 261 369 274 q 443 214 442 249 q 420 178 443 189 q 369 163 397 168 q 319 147 340 157 q 292 117 297 138 q 286 71 286 96 q 288 26 286 49 q 289 -14 289 4 q 275 -260 288 -137 l 274 -286 q 239 -392 274 -392 z "},"g":{"ha":557,"x_min":96,"x_max":528,"o":"m 233 -393 l 217 -392 q 135 -358 160 -385 q 111 -293 111 -331 q 171 -153 111 -225 q 299 -81 231 -81 l 301 -81 q 311 -90 311 -81 q 308 -97 311 -94 q 243 -162 271 -132 q 208 -219 224 -186 q 193 -272 193 -253 q 203 -285 193 -283 l 204 -285 q 295 -241 254 -278 q 356 -156 336 -204 q 382 -35 376 -100 q 388 90 388 29 l 388 143 l 381 143 q 313 54 358 89 q 219 19 268 19 q 157 42 186 19 q 112 114 128 64 q 96 222 96 164 q 129 413 96 317 q 215 579 163 510 q 283 635 243 615 q 368 654 324 654 q 494 603 436 654 q 528 497 528 568 q 519 400 528 449 q 513 326 514 358 q 515 211 513 269 q 518 94 518 153 q 505 -74 518 8 q 451 -235 492 -157 q 362 -344 419 -296 q 233 -393 304 -393 m 242 175 q 374 415 317 292 q 383 433 376 422 q 397 458 390 444 q 404 482 404 471 q 397 499 404 492 q 368 511 383 511 q 326 492 346 511 q 297 453 307 472 q 231 235 231 328 q 242 175 231 203 z "},"h":{"ha":535,"x_min":28,"x_max":499,"o":"m 100 -1 q 41 53 54 3 q 28 160 28 103 l 29 199 l 33 801 l 35 840 l 35 854 q 47 919 35 890 q 96 947 67 947 q 129 939 114 947 q 161 819 161 921 l 160 781 q 158 645 160 690 q 156 554 156 600 q 160 460 156 507 q 251 565 200 519 q 376 624 315 624 q 490 519 460 624 q 499 433 499 476 q 485 308 499 371 q 456 185 472 244 l 450 163 q 388 10 425 53 q 376 4 383 4 q 368 8 372 4 q 363 18 364 13 q 361 50 361 33 q 375 179 361 111 q 394 381 394 303 q 378 514 394 447 q 181 154 232 428 q 176 122 178 140 q 168 67 174 94 q 100 -1 153 -1 z "},"i":{"ha":194,"x_min":10,"x_max":169,"o":"m 92 707 q 47 740 63 707 q 31 811 31 772 q 42 869 31 842 q 107 914 60 914 q 154 886 139 914 q 169 824 169 858 q 155 757 169 789 q 114 713 140 725 q 92 707 101 707 m 122 13 q 81 35 99 13 q 51 85 63 57 q 35 131 39 113 q 10 358 10 244 q 13 500 10 426 q 24 574 14 538 q 69 625 33 611 q 88 628 79 628 q 131 608 114 628 q 151 560 149 588 q 154 489 154 524 q 149 351 154 421 q 144 214 144 282 q 151 128 144 161 q 158 64 158 96 q 153 33 158 46 q 139 16 149 19 q 122 13 129 13 z "},"j":{"ha":389,"x_min":6,"x_max":356,"o":"m 285 725 q 239 753 256 725 q 222 814 222 781 q 233 861 222 839 q 292 896 250 896 q 339 869 322 896 q 356 813 356 843 q 344 763 356 786 q 306 729 332 739 q 285 725 294 725 m 85 -392 q 32 -381 58 -392 q 6 -342 6 -369 q 19 -319 6 -325 q 52 -309 33 -314 q 83 -296 71 -304 q 196 25 179 -204 q 201 186 201 106 l 201 219 q 210 431 201 326 q 208 482 210 461 q 207 526 207 503 q 216 589 207 560 q 254 631 225 618 q 283 638 271 638 q 335 592 324 638 q 347 493 347 546 q 344 426 347 457 q 343 294 343 406 q 333 37 343 168 q 276 -207 322 -94 q 110 -389 218 -360 q 85 -392 99 -392 z "},"k":{"ha":481,"x_min":10,"x_max":468,"o":"m 86 -3 q 42 11 63 -3 q 15 47 21 25 q 10 92 10 68 q 17 178 10 133 q 24 257 24 224 q 26 493 24 351 q 49 901 33 838 q 110 947 65 947 q 157 925 136 947 q 183 850 183 889 q 179 806 183 829 l 179 800 q 164 528 164 683 q 168 454 164 475 q 238 558 221 525 q 260 595 249 581 q 294 624 272 610 q 329 633 311 633 q 377 615 356 633 q 399 565 399 596 q 374 490 399 529 q 322 419 349 451 l 290 378 q 269 353 279 367 q 260 321 260 339 q 310 269 265 301 q 326 258 319 264 q 413 182 368 225 q 465 106 450 144 q 468 93 468 99 q 454 79 468 79 q 275 179 411 79 l 206 226 l 197 193 q 171 97 186 147 q 86 -3 140 -3 z "},"l":{"ha":210,"x_min":6,"x_max":194,"o":"m 150 -4 q 90 22 122 -4 q 39 118 57 47 q 6 506 6 272 q 10 719 6 610 l 10 738 q 14 815 10 767 q 33 901 18 863 q 85 943 49 940 l 101 944 q 149 926 136 944 q 161 871 161 907 q 156 789 161 838 l 150 724 q 136 357 136 497 q 144 165 136 233 q 166 65 153 97 q 193 19 179 33 q 194 15 194 18 q 182 3 194 10 q 150 -4 169 -4 z "},"m":{"ha":679,"x_min":13,"x_max":668,"o":"m 89 -6 q 44 21 58 -6 q 28 82 31 47 q 25 143 25 117 q 19 315 25 228 q 13 488 13 401 q 19 618 13 554 q 44 667 24 649 q 89 686 64 686 q 140 656 117 686 q 151 629 149 643 q 153 591 153 615 q 157 549 153 567 q 215 616 179 593 q 289 639 251 639 q 365 610 331 639 q 410 524 399 582 q 443 557 428 539 q 510 610 469 592 q 540 615 526 615 q 605 588 578 615 q 644 524 632 561 q 668 356 668 444 q 650 178 668 264 q 646 151 647 165 q 603 6 631 50 q 590 -1 597 -1 q 580 3 585 -1 q 575 14 575 7 l 574 53 q 572 147 572 92 l 574 233 l 575 281 q 553 472 575 394 q 544 479 550 479 q 538 476 540 479 q 469 356 493 438 q 442 192 442 263 l 442 174 q 436 90 442 133 q 407 24 431 47 q 367 6 386 6 q 322 29 340 6 q 297 82 303 53 q 292 167 292 121 q 295 280 292 222 q 299 383 299 338 q 294 451 299 424 q 276 486 290 478 q 197 274 239 479 q 169 107 169 135 q 156 42 167 74 q 113 -1 146 10 q 89 -6 100 -6 z "},"n":{"ha":494,"x_min":8,"x_max":469,"o":"m 94 -4 q 54 19 67 -4 q 39 75 42 43 q 36 136 36 107 q 22 469 36 303 l 17 514 q 8 594 8 556 q 13 633 8 615 q 39 660 18 651 q 82 669 60 669 q 139 650 117 669 q 156 574 156 629 q 163 519 156 543 q 233 598 185 565 q 333 631 282 631 q 428 576 394 631 q 469 386 469 504 q 442 154 469 290 l 438 131 q 403 24 428 51 q 389 15 394 15 q 372 35 378 15 q 364 78 367 56 q 360 115 361 101 l 360 122 q 356 221 356 171 l 356 275 q 346 406 356 340 l 344 414 q 333 465 342 436 q 301 496 324 494 q 231 399 265 496 l 226 388 q 168 93 174 250 q 160 39 168 64 q 124 1 153 14 q 94 -4 107 -4 z "},"o":{"ha":454,"x_min":25,"x_max":454,"o":"m 232 -1 q 126 42 171 -1 q 25 336 25 140 q 64 520 25 435 q 196 631 103 606 q 218 633 208 633 q 274 615 242 633 q 338 590 299 601 q 381 573 361 583 q 418 539 401 563 q 454 382 454 485 q 440 233 454 314 q 385 88 426 151 q 265 3 343 24 q 232 -1 249 -1 m 239 139 q 273 160 261 143 q 297 206 285 178 q 346 404 346 303 l 344 432 q 333 490 340 469 q 294 518 325 518 l 283 517 q 187 449 214 503 q 160 332 160 396 q 167 256 160 293 l 178 207 q 235 139 197 139 l 239 139 z "},"p":{"ha":618,"x_min":3,"x_max":528,"o":"m 82 -393 q 33 -369 54 -393 q 8 -311 11 -344 q 6 -112 6 -235 l 3 401 q 13 629 3 607 q 69 664 35 664 q 126 629 103 664 q 140 564 140 599 q 147 515 142 539 q 228 604 176 572 q 335 636 279 636 q 421 613 379 636 q 492 540 463 589 q 528 401 528 472 q 415 135 528 256 q 153 4 301 14 l 153 -146 q 133 -360 153 -325 q 82 -393 110 -393 m 153 61 q 315 164 244 86 q 408 333 385 242 q 417 396 417 364 q 408 449 417 424 q 379 494 400 475 q 338 513 358 513 q 274 478 303 513 q 217 383 238 436 q 153 61 167 251 z "},"q":{"ha":572,"x_min":21,"x_max":563,"o":"m 518 -393 q 447 -362 485 -393 q 394 -307 408 -331 q 336 -108 346 -214 q 326 100 326 -3 l 326 117 q 299 78 313 99 q 232 3 274 32 q 172 -15 200 -15 q 57 72 103 -15 q 21 244 21 143 q 60 451 21 347 q 182 607 99 554 q 256 628 221 628 q 315 619 285 628 q 389 610 357 610 q 433 601 414 610 q 468 521 468 589 q 457 428 468 476 q 447 363 450 393 l 440 276 q 428 8 428 142 q 435 -136 428 -64 q 479 -267 447 -225 q 537 -324 511 -308 q 563 -353 563 -340 l 563 -357 q 518 -393 547 -393 m 182 142 q 297 406 257 265 l 299 408 q 311 465 311 438 q 282 508 311 497 q 268 511 275 511 q 226 485 243 511 q 199 438 210 460 q 157 246 157 346 q 169 142 157 193 l 182 142 z "},"r":{"ha":393,"x_min":10,"x_max":392,"o":"m 99 -17 q 67 13 79 -17 q 38 122 44 61 q 10 454 10 315 q 17 576 10 518 q 38 619 21 606 q 75 633 54 633 q 147 589 117 633 q 290 619 218 619 q 392 538 388 619 q 379 508 392 515 q 350 501 367 501 l 301 504 q 222 477 260 501 q 168 419 185 453 q 158 364 158 394 l 160 306 q 149 97 160 201 l 147 78 q 119 -7 143 15 q 99 -17 108 -17 z "},"s":{"ha":508,"x_min":21,"x_max":464,"o":"m 179 -11 q 56 32 108 -11 q 21 100 21 58 q 26 130 21 114 q 53 165 32 146 q 96 185 75 185 q 113 178 104 185 q 121 164 121 172 q 115 142 121 153 q 110 121 110 131 q 118 104 110 111 q 158 92 135 92 q 256 124 206 92 q 322 192 307 157 l 324 201 q 297 239 324 224 q 249 263 271 254 q 157 304 193 285 q 72 426 72 350 q 154 567 74 500 q 308 629 231 629 q 369 614 342 629 q 415 565 397 599 q 432 494 432 531 q 414 440 432 464 q 369 417 392 417 q 322 440 342 417 q 299 494 301 464 q 270 483 288 492 q 238 460 253 474 q 224 433 224 447 q 308 378 224 404 q 350 363 333 371 q 464 206 464 300 q 411 92 464 150 q 179 -11 307 -11 z "},"t":{"ha":501,"x_min":17,"x_max":489,"o":"m 285 -10 q 256 -6 271 -10 q 193 43 211 8 q 154 315 154 119 q 160 483 154 400 l 113 483 q 47 494 78 483 q 17 543 17 514 q 53 596 17 575 q 99 603 74 603 q 139 600 118 603 l 167 599 l 169 653 q 179 794 172 757 q 203 828 185 817 q 244 840 222 840 q 304 807 281 840 q 311 774 311 792 l 303 594 q 344 590 315 592 q 407 584 374 589 q 465 567 440 579 q 489 531 489 556 q 431 485 489 493 q 340 478 383 478 l 299 478 l 292 381 q 283 229 283 306 q 299 90 283 158 q 358 128 329 108 q 457 181 431 181 q 472 174 465 181 q 478 160 478 168 q 450 106 478 140 l 447 101 q 285 -10 371 -10 z "},"u":{"ha":476,"x_min":6,"x_max":474,"o":"m 144 -6 q 56 49 99 -6 q 6 296 6 119 q 18 490 6 394 q 19 519 19 504 l 19 525 q 38 597 19 565 q 92 628 61 628 q 151 585 129 628 q 161 526 161 560 q 149 417 161 472 l 143 376 q 138 274 138 328 q 143 160 138 215 q 158 144 146 144 q 169 150 165 144 q 238 267 210 196 q 288 407 267 338 q 318 496 304 458 l 329 528 q 351 588 338 560 q 418 629 372 629 q 455 612 443 629 q 470 569 467 594 q 474 507 474 543 q 461 138 471 317 q 460 115 460 128 q 433 3 460 26 q 421 -3 426 -3 q 395 28 404 -3 q 382 93 386 60 q 378 138 378 126 l 365 249 q 319 146 353 204 q 240 41 286 88 q 144 -6 193 -6 z "},"v":{"ha":471,"x_min":10,"x_max":454,"o":"m 210 -4 q 135 39 164 -3 q 96 110 108 75 q 46 287 61 196 q 24 469 31 378 l 18 504 q 10 561 10 533 q 17 596 10 579 q 40 622 24 613 q 74 632 56 632 q 120 613 100 632 q 147 567 140 594 q 156 513 153 539 q 213 185 167 329 q 271 326 244 254 q 286 367 278 347 q 303 408 294 388 q 333 482 317 444 q 401 588 357 542 q 433 603 421 603 q 446 597 440 603 q 454 567 454 586 q 431 465 454 535 l 422 438 q 321 97 382 264 q 210 -4 286 -4 z "},"w":{"ha":701,"x_min":25,"x_max":681,"o":"m 122 -4 q 40 57 71 -4 q 25 157 25 101 q 44 320 25 236 q 81 467 63 404 l 88 493 q 110 563 96 528 q 188 638 138 638 q 233 619 213 638 q 254 567 254 601 q 244 506 254 536 q 222 447 235 476 q 199 386 210 417 q 189 324 189 356 q 192 297 189 311 q 226 369 204 335 l 244 401 q 333 481 282 481 q 407 429 378 481 q 419 332 419 385 l 419 282 q 424 221 419 250 l 424 218 q 461 153 431 153 q 526 211 492 153 q 583 408 583 306 q 568 499 583 456 q 535 552 556 525 q 501 607 515 579 l 500 613 q 505 624 500 619 q 517 629 510 629 l 519 629 q 615 569 576 615 q 681 363 681 490 q 654 208 681 283 q 575 76 628 132 q 449 18 515 18 q 381 38 413 18 q 293 196 314 75 l 286 196 q 172 13 240 65 q 122 -4 147 -4 z "},"x":{"ha":479,"x_min":1,"x_max":472,"o":"m 53 -4 q 26 28 31 -4 l 26 31 q 81 164 35 100 q 117 225 101 194 q 132 288 132 256 q 112 347 131 319 q 67 401 93 375 q 22 456 42 428 q 1 518 3 485 q 22 565 1 546 q 68 583 42 583 q 168 503 115 583 q 214 415 199 456 l 226 415 q 367 611 294 561 q 403 622 385 622 q 451 604 429 622 q 472 557 472 586 q 442 479 472 525 q 392 413 418 446 q 356 365 371 388 l 346 351 q 317 293 317 314 q 342 233 318 264 q 387 185 361 208 q 433 135 413 163 q 457 74 454 108 q 424 47 457 47 q 390 53 406 47 q 278 129 325 82 q 221 176 251 154 q 94 14 175 82 q 53 -4 72 -4 z "},"y":{"ha":501,"x_min":13,"x_max":492,"o":"m 172 -389 q 81 -317 104 -389 q 76 -279 76 -299 q 99 -237 76 -237 q 119 -247 111 -237 q 133 -268 126 -256 q 149 -291 139 -281 q 178 -301 158 -301 q 256 -260 221 -299 q 300 -190 285 -226 q 342 -26 333 -111 q 350 142 350 58 q 347 146 350 144 q 343 140 344 146 q 265 38 322 82 q 149 -6 208 -6 q 49 56 83 -6 q 13 261 13 122 q 58 542 13 404 q 92 603 68 572 q 146 635 115 635 q 193 604 169 635 q 206 563 206 585 q 199 523 206 543 q 185 483 193 503 q 172 447 178 464 q 153 286 153 367 q 160 149 153 218 l 161 125 q 251 256 215 185 q 315 403 288 328 q 329 450 322 422 q 347 506 336 478 q 378 553 358 535 q 422 571 397 571 q 458 560 442 571 q 483 528 475 550 q 492 481 492 507 q 487 424 492 453 q 482 371 482 394 l 482 242 q 476 63 482 153 q 289 -350 454 -244 q 172 -389 229 -389 z "},"z":{"ha":551,"x_min":10,"x_max":522,"o":"m 149 -4 l 106 -3 q 10 71 10 0 q 49 154 10 115 q 106 207 76 183 l 175 267 q 292 372 235 315 q 376 496 349 429 q 263 471 332 496 q 188 449 226 457 l 174 447 q 126 469 144 447 q 107 517 107 490 q 222 614 107 578 q 349 635 283 635 q 460 611 411 635 q 522 503 522 582 q 492 397 522 447 q 415 302 461 347 q 319 215 368 257 q 213 113 256 161 q 308 108 261 113 l 339 106 q 428 103 397 106 q 503 67 503 99 q 481 39 503 50 q 396 19 453 26 l 383 18 q 149 -4 267 -4 z "},"{":{"ha":369,"x_min":8,"x_max":346,"o":"m 240 -49 q 165 -8 189 -49 q 134 89 140 32 q 128 194 128 146 q 130 281 128 267 q 132 310 132 294 q 113 358 132 349 q 72 369 93 368 q 33 380 50 371 q 10 417 15 389 l 8 426 q 20 459 8 446 q 47 483 32 472 q 72 506 61 493 q 93 599 93 528 q 89 677 93 638 q 85 754 85 717 q 101 848 85 803 q 165 931 117 893 q 267 969 214 969 q 318 958 293 969 q 346 919 343 947 q 331 897 346 901 q 299 890 317 892 q 271 883 282 889 q 200 775 211 847 q 197 726 197 750 q 201 651 197 689 q 204 576 204 614 q 201 533 204 557 q 197 488 197 510 q 222 414 197 451 q 247 351 240 386 q 250 308 250 331 q 244 220 250 264 q 238 136 239 176 l 236 100 q 249 49 236 72 q 278 24 258 38 q 317 -17 317 -1 q 282 -42 317 -31 q 240 -49 258 -49 z "},"|":{"ha":125,"x_min":14,"x_max":125,"o":"m 60 -1 q 42 11 49 -1 q 33 35 35 24 q 18 194 18 119 q 14 404 14 299 q 18 732 14 590 q 16 776 18 751 q 14 826 14 800 q 40 922 14 896 q 78 940 63 940 q 125 794 125 940 q 106 165 125 438 l 106 147 q 100 67 106 111 q 71 3 94 24 q 60 -1 64 -1 z "},"}":{"ha":357,"x_min":17,"x_max":354,"o":"m 111 -44 q 68 -37 90 -44 q 46 -11 46 -31 q 82 28 46 11 q 106 42 96 35 q 132 132 132 60 q 124 228 132 179 q 115 321 115 278 q 142 413 117 372 q 167 482 167 454 q 163 523 167 501 q 158 561 158 544 q 164 638 158 596 q 169 724 169 681 q 76 890 169 857 q 56 893 67 893 q 25 901 33 893 q 17 918 17 910 q 31 947 17 933 q 61 966 46 961 q 94 971 76 971 q 169 950 133 971 q 258 858 236 911 q 279 743 279 804 q 276 670 279 707 q 272 597 272 633 q 276 539 272 568 q 317 483 281 510 q 342 459 331 472 q 354 424 354 446 q 334 382 351 392 q 293 370 317 372 q 252 358 269 368 q 232 318 235 349 l 232 301 q 235 230 232 271 q 239 146 239 189 q 217 25 239 79 q 126 -43 194 -29 l 111 -44 z "},"~":{"ha":528,"x_min":7,"x_max":518,"o":"m 357 190 l 344 190 q 232 236 282 190 q 215 258 225 244 q 192 284 206 271 q 164 297 179 297 q 136 284 147 297 q 116 254 125 271 q 96 224 107 238 q 67 210 85 210 q 38 218 54 210 q 7 269 7 239 q 15 311 7 290 q 153 419 51 407 l 165 419 q 289 354 236 419 q 320 320 303 336 q 361 304 338 304 q 428 342 385 306 q 493 379 472 379 q 504 376 499 379 q 518 347 518 365 q 507 300 518 328 q 357 190 464 204 z "},"":{"ha":179,"x_min":15,"x_max":147,"o":"m 74 -7 q 15 133 15 -7 q 42 619 15 411 l 43 644 q 83 772 49 756 l 92 774 q 113 761 104 774 q 135 656 132 729 q 140 603 136 629 q 146 493 146 549 q 138 320 146 407 q 131 150 131 233 q 133 113 131 135 q 136 69 136 92 q 99 -1 136 14 q 74 -7 85 -7 m 90 822 q 49 842 64 822 q 33 885 33 863 q 71 935 33 922 q 90 938 82 938 q 132 919 117 938 q 147 876 147 900 q 108 825 147 838 q 90 822 99 822 z "},"":{"ha":524,"x_min":35,"x_max":506,"o":"m 167 6 q 140 50 143 6 q 139 90 139 63 q 161 283 139 185 q 65 372 96 315 q 35 494 35 429 q 107 697 35 603 q 189 760 144 736 q 253 804 222 778 q 279 861 274 828 q 295 908 283 888 q 342 928 307 928 q 383 915 374 928 q 393 885 393 903 q 391 858 393 872 q 389 832 389 844 q 440 765 389 793 q 494 714 475 747 q 501 682 501 699 q 488 639 501 658 q 447 619 474 619 q 385 660 413 619 q 358 686 372 675 l 288 356 q 447 381 368 356 q 481 388 464 388 q 498 382 490 388 q 506 368 506 376 q 475 328 506 351 q 260 256 383 256 q 208 57 247 153 l 207 53 q 167 6 190 6 m 182 410 l 226 647 q 172 576 197 625 q 146 481 146 526 q 182 410 146 436 z "},"":{"ha":558,"x_min":32,"x_max":525,"o":"m 157 -7 q 110 14 129 -7 q 97 54 97 33 q 117 126 97 89 q 136 228 136 174 q 129 314 136 271 l 128 326 l 124 326 q 96 324 110 324 q 57 336 75 324 q 32 378 32 357 q 55 420 32 401 q 106 443 78 439 q 99 572 99 506 q 121 738 99 657 q 206 882 143 819 q 313 928 258 928 q 426 878 376 928 q 475 754 475 828 q 453 692 475 710 q 415 678 436 678 q 368 703 389 678 q 357 743 357 721 q 345 786 357 765 q 315 807 333 807 q 304 804 310 807 q 270 772 283 794 q 247 729 257 750 q 218 575 218 665 q 219 518 218 547 q 221 460 221 489 l 265 460 q 324 456 294 460 q 381 442 353 453 q 406 424 394 436 q 418 399 418 413 q 411 379 418 389 q 362 354 394 361 q 297 344 329 347 q 243 338 264 342 q 251 265 251 301 q 226 101 251 203 q 313 107 269 107 q 344 106 329 107 q 372 103 360 104 q 457 92 415 100 q 525 60 525 79 q 517 46 525 53 q 444 29 496 31 q 204 0 349 25 q 157 -7 172 -7 z "},"":{"ha":688,"x_min":0,"x_max":0,"o":""},"":{"ha":688,"x_min":0,"x_max":0,"o":""},"":{"ha":688,"x_min":0,"x_max":0,"o":""},"":{"ha":688,"x_min":0,"x_max":0,"o":""},"":{"ha":694,"x_min":0,"x_max":0,"o":""},"":{"ha":243,"x_min":4,"x_max":229,"o":"m 107 753 q 35 783 65 753 q 4 867 6 814 q 33 965 4 919 q 128 1019 67 1015 q 189 993 161 1019 q 229 899 229 953 q 201 807 229 850 q 122 754 172 764 l 107 753 m 107 785 q 177 825 150 785 q 204 906 204 865 q 193 957 203 932 q 163 988 183 982 l 146 989 q 78 964 107 989 q 36 872 36 931 q 50 818 36 843 q 107 785 68 785 m 103 818 q 86 824 94 818 q 64 879 64 846 q 78 933 64 907 q 117 961 92 960 q 149 949 132 961 q 165 921 165 938 q 161 908 165 915 q 151 900 157 900 q 135 912 144 900 q 121 924 126 924 q 107 915 113 924 q 99 894 101 906 q 97 872 97 882 q 108 851 99 851 q 129 860 118 851 l 144 867 l 146 860 q 132 831 146 844 q 103 818 118 818 z "},"":{"ha":900,"x_min":0,"x_max":0,"o":""},"":{"ha":1311,"x_min":0,"x_max":0,"o":""},"":{"ha":688,"x_min":0,"x_max":0,"o":""},"":{"ha":1136,"x_min":0,"x_max":0,"o":""},"":{"ha":694,"x_min":0,"x_max":0,"o":""},"":{"ha":457,"x_min":0,"x_max":0,"o":""},"":{"ha":485,"x_min":25,"x_max":443,"o":"m 185 35 q 86 40 133 35 q 46 56 63 43 q 29 85 29 69 q 61 114 29 103 q 90 118 75 118 q 123 116 107 118 q 153 114 139 114 q 221 116 183 114 q 297 118 258 118 q 415 104 361 118 q 440 86 440 96 q 426 71 440 79 q 393 58 411 63 q 364 50 375 53 q 185 35 276 35 m 232 126 q 221 129 228 126 q 190 179 196 144 q 186 235 186 208 l 186 247 q 179 326 179 317 q 69 324 124 324 q 39 333 51 324 q 25 357 26 342 q 31 379 25 372 q 70 400 44 400 q 122 401 96 400 l 174 401 q 169 556 169 479 q 215 586 185 583 q 276 556 258 586 l 278 478 l 278 399 q 419 388 361 399 q 443 368 443 383 q 440 360 443 365 q 393 338 426 342 q 313 335 360 335 q 276 332 293 332 l 275 300 q 258 153 275 219 q 250 135 257 144 q 232 126 243 126 z "},"":{"ha":1408,"x_min":0,"x_max":0,"o":""},"":{"ha":1408,"x_min":0,"x_max":0,"o":""},"":{"ha":694,"x_min":0,"x_max":0,"o":""},"":{"ha":1639,"x_min":0,"x_max":0,"o":""},"":{"ha":694,"x_min":0,"x_max":0,"o":""},"":{"ha":344,"x_min":0,"x_max":0,"o":""},"":{"ha":694,"x_min":0,"x_max":0,"o":""},"":{"ha":1408,"x_min":0,"x_max":0,"o":""},"":{"ha":2114,"x_min":0,"x_max":0,"o":""},"":{"ha":1311,"x_min":0,"x_max":0,"o":""},"":{"ha":2372,"x_min":0,"x_max":0,"o":""},"":{"ha":3292,"x_min":0,"x_max":0,"o":""},"":{"ha":2372,"x_min":0,"x_max":0,"o":""},"":{"ha":415,"x_min":4,"x_max":407,"o":"m 160 -8 q 48 40 92 -8 q 4 157 4 88 q 28 285 6 224 q 81 407 51 347 q 154 608 132 508 q 185 722 167 667 q 221 768 199 768 q 249 696 249 767 q 243 621 249 663 l 243 617 q 147 249 225 421 q 121 163 121 193 q 133 126 121 143 q 167 110 146 110 q 217 125 192 110 q 257 156 243 140 q 277 190 271 171 q 286 228 283 208 q 294 266 289 249 q 315 296 300 283 q 353 313 338 313 q 394 278 382 313 q 407 211 407 244 q 406 188 407 199 q 327 57 389 107 q 188 -6 265 7 q 160 -8 174 -8 m 207 825 q 167 844 182 825 q 153 883 153 863 q 193 936 153 924 q 210 939 201 939 q 249 919 233 939 q 264 878 264 900 q 226 828 264 840 q 207 825 217 825 z "},"":{"ha":615,"x_min":11,"x_max":613,"o":"m 479 972 q 419 1015 451 972 q 388 1092 388 1057 q 411 1125 388 1115 l 417 1126 q 455 1103 435 1126 q 488 1051 475 1081 q 501 1000 501 1022 q 488 974 501 981 l 479 972 m 142 -4 q 103 10 121 -4 q 83 49 86 25 q 79 100 79 74 q 114 336 79 200 q 81 333 99 333 q 11 382 11 333 q 39 436 11 422 q 85 453 60 447 q 147 486 132 464 q 172 556 164 517 l 185 596 q 336 875 246 774 q 469 946 396 943 q 542 913 514 946 q 580 839 571 881 q 589 754 589 797 q 580 634 589 694 q 571 515 571 574 l 571 497 q 591 466 571 481 q 613 436 611 451 l 613 433 q 561 403 613 404 q 540 167 561 322 q 500 1 518 1 q 472 111 476 1 l 472 122 q 467 397 467 260 l 294 378 q 246 360 258 375 q 228 303 233 344 l 225 288 q 203 97 203 169 q 199 50 203 74 q 179 10 196 26 q 142 -4 161 -4 m 274 496 l 467 501 q 474 600 467 546 q 481 708 481 654 q 461 822 481 771 q 344 674 388 765 q 274 496 300 583 z "},"":{"ha":615,"x_min":11,"x_max":613,"o":"m 482 972 q 461 1001 461 972 q 489 1069 461 1028 q 532 1113 507 1100 q 550 1117 540 1117 q 573 1108 563 1117 q 583 1085 583 1099 q 549 1018 583 1060 q 499 976 524 989 q 482 972 489 972 m 142 -4 q 103 10 121 -4 q 83 49 86 25 q 79 100 79 74 q 114 336 79 200 q 81 333 99 333 q 11 382 11 333 q 39 436 11 422 q 85 453 60 447 q 119 464 103 457 q 174 557 157 479 q 185 596 178 578 q 336 875 246 774 q 469 946 396 943 q 542 913 514 946 q 580 838 571 881 q 589 753 589 796 q 580 631 589 692 q 571 510 571 569 l 571 497 q 591 466 571 481 q 613 436 611 451 l 613 433 q 561 403 613 404 q 540 167 561 322 q 500 1 518 1 q 472 111 476 1 l 472 122 q 467 397 467 260 l 294 378 q 246 360 258 375 q 228 303 233 344 l 225 288 q 203 97 203 169 q 199 50 203 74 q 178 11 196 26 q 142 -4 161 -4 m 274 496 l 467 501 q 474 600 467 546 q 481 708 481 654 q 461 822 481 771 q 345 674 389 765 q 274 496 301 583 z "},"":{"ha":615,"x_min":11,"x_max":613,"o":"m 585 971 q 576 974 581 971 q 531 1018 550 989 q 506 1074 513 1047 q 464 1026 482 1056 q 439 994 453 1008 q 399 972 419 972 q 374 982 383 972 q 364 1007 364 992 q 392 1069 365 1029 q 447 1135 415 1106 q 507 1165 479 1165 q 571 1083 543 1165 l 581 1058 q 601 989 594 1026 q 597 976 601 981 q 585 971 592 971 m 142 -4 q 103 10 121 -4 q 83 49 86 25 q 79 99 79 74 q 115 336 79 196 q 81 333 99 333 q 11 382 11 333 q 39 436 11 422 q 85 453 60 447 q 119 464 103 457 q 174 557 157 479 q 185 596 178 578 q 336 875 246 774 q 471 946 397 943 q 542 913 514 946 q 580 838 571 881 q 589 753 589 796 q 580 631 589 692 q 571 510 571 569 l 571 497 q 591 466 571 481 q 613 436 611 451 l 613 433 q 561 403 613 404 q 540 167 561 322 q 500 1 518 1 q 475 83 478 1 q 468 397 468 263 l 294 378 q 246 360 258 375 q 228 303 233 344 l 225 288 q 203 97 203 169 q 199 50 203 74 q 178 11 196 26 q 142 -4 161 -4 m 275 496 l 468 501 q 474 600 468 546 q 481 708 481 654 q 463 822 481 769 q 345 674 389 765 q 275 496 301 583 z "},"":{"ha":654,"x_min":11,"x_max":636,"o":"m 394 971 q 372 983 381 971 q 363 1010 363 994 q 391 1075 365 1046 q 456 1107 417 1104 q 487 1097 475 1107 q 508 1076 499 1088 q 528 1055 518 1064 q 553 1046 538 1046 q 585 1070 563 1047 q 619 1093 608 1093 q 631 1083 626 1093 q 636 1060 636 1072 q 613 1007 636 1032 q 542 974 579 974 q 458 1032 488 974 q 438 1004 447 1021 q 413 976 429 988 q 394 971 403 971 m 143 -4 q 104 10 121 -4 q 83 50 88 25 q 79 103 79 75 q 115 336 79 199 q 81 333 99 333 q 11 382 11 333 q 39 436 11 422 q 85 453 60 447 q 119 464 103 457 q 174 557 157 479 q 185 596 178 578 q 336 875 246 774 q 471 946 397 943 q 542 913 514 946 q 580 838 571 881 q 589 753 589 796 q 580 631 589 692 q 571 510 571 569 l 571 497 q 592 465 572 479 q 613 436 611 451 l 613 433 q 561 403 613 404 q 542 167 561 321 q 500 1 519 1 q 475 83 478 1 q 468 397 468 263 l 296 378 q 246 360 258 375 q 228 303 233 344 l 218 244 q 203 117 207 181 q 199 45 203 67 q 178 10 194 24 q 143 -4 161 -4 m 275 496 l 468 501 q 474 600 468 546 q 481 708 481 654 q 463 822 481 769 q 345 674 389 765 q 275 496 301 583 z "},"":{"ha":632,"x_min":11,"x_max":613,"o":"m 567 1006 q 538 1020 549 1006 q 528 1051 528 1035 q 554 1090 528 1075 q 568 1093 561 1093 q 597 1078 586 1093 q 608 1047 608 1064 q 582 1008 608 1022 q 567 1006 574 1006 m 421 1011 q 390 1025 403 1011 q 378 1056 378 1039 q 399 1088 378 1074 q 418 1093 408 1093 q 447 1079 435 1093 q 460 1049 460 1065 q 443 1018 460 1032 q 421 1011 432 1011 m 143 -4 q 104 10 121 -4 q 83 50 88 25 q 79 103 79 75 q 115 336 79 199 q 81 333 99 333 q 11 382 11 333 q 39 436 11 422 q 85 453 60 447 q 119 464 103 457 q 174 557 157 479 q 185 596 178 578 q 336 875 246 774 q 471 946 397 943 q 543 913 515 946 q 580 838 571 881 q 589 753 589 796 q 580 631 589 692 q 571 510 571 569 l 571 497 q 592 465 572 479 q 613 436 611 451 l 613 433 q 561 403 613 404 q 542 167 561 321 q 500 1 519 1 q 475 83 478 1 q 468 397 468 263 l 296 378 q 245 359 258 375 q 228 297 232 343 l 222 263 q 203 117 208 190 q 199 45 203 67 q 178 10 194 24 q 143 -4 161 -4 m 275 496 l 468 501 q 474 600 468 546 q 481 708 481 654 q 463 822 481 769 q 345 674 389 765 q 275 496 301 583 z "},"":{"ha":614,"x_min":10,"x_max":611,"o":"m 483 971 q 435 992 451 971 q 418 1040 418 1014 q 433 1085 418 1064 q 478 1114 447 1107 l 493 1115 q 539 1093 522 1115 q 556 1043 556 1071 q 543 1001 556 1021 q 503 974 531 981 q 483 971 493 971 m 494 1015 q 521 1039 510 1015 q 524 1056 524 1047 l 524 1067 q 508 1068 517 1067 q 492 1069 500 1069 q 463 1047 463 1064 q 472 1026 463 1036 q 494 1015 482 1015 m 142 -4 q 103 10 119 -4 q 82 50 86 25 q 78 103 78 75 q 114 336 78 199 q 79 333 97 333 q 10 383 10 333 q 38 436 10 422 q 83 453 58 447 q 119 464 103 457 q 174 564 156 479 l 183 596 q 335 875 244 774 q 469 946 396 943 q 542 913 514 946 q 579 838 569 881 q 589 751 589 796 q 579 630 589 690 q 569 508 569 569 l 569 497 q 590 465 571 479 q 611 436 610 451 l 611 433 q 560 403 611 404 q 540 167 560 321 q 499 1 518 1 q 474 83 476 1 q 467 397 467 263 l 294 378 q 246 361 258 375 q 226 297 231 343 l 221 267 q 203 99 203 172 q 199 50 203 74 q 178 11 196 26 q 142 -4 160 -4 m 274 496 l 467 501 q 473 600 467 546 q 479 708 479 654 q 461 822 479 769 q 344 674 388 765 q 274 496 300 583 z "},"":{"ha":978,"x_min":11,"x_max":972,"o":"m 658 0 l 624 3 q 533 26 575 7 q 475 110 476 54 q 472 222 474 167 q 469 389 469 306 l 297 369 q 248 351 261 367 q 229 294 235 336 l 222 257 q 204 106 208 182 l 204 71 q 200 38 204 53 q 178 12 196 22 q 142 1 161 1 q 104 13 121 1 q 83 49 88 25 q 79 100 79 74 q 115 328 79 189 q 81 325 99 325 q 11 374 11 325 q 39 428 11 414 q 85 444 60 439 q 119 456 103 449 q 175 556 157 471 q 263 774 199 646 q 390 914 311 871 q 556 943 456 943 q 786 910 678 943 q 850 878 832 897 q 868 842 868 860 q 849 804 868 819 q 806 789 831 789 q 715 810 769 790 q 604 832 647 832 l 610 511 q 772 483 707 511 q 818 431 817 465 q 801 409 818 413 q 771 406 783 406 l 697 408 q 622 394 653 408 q 608 354 608 385 l 610 328 q 607 273 610 304 q 604 210 604 242 q 617 129 604 165 q 664 99 629 99 q 699 103 681 99 q 896 196 803 125 q 958 231 938 231 q 972 217 969 231 l 972 211 q 952 163 972 188 q 913 121 932 138 l 904 113 q 794 35 861 69 q 658 0 726 0 m 275 489 l 468 494 q 474 592 468 538 q 481 701 481 646 q 463 814 481 763 q 345 667 389 758 q 275 489 301 575 z "},"":{"ha":1943,"x_min":0,"x_max":0,"o":""},"":{"ha":660,"x_min":43,"x_max":656,"o":"m 360 972 q 299 1015 331 972 q 268 1092 268 1057 q 292 1125 268 1115 l 297 1126 q 335 1103 315 1126 q 369 1051 356 1081 q 382 1000 382 1022 q 368 974 382 981 l 360 972 m 343 0 q 251 25 294 0 q 192 117 206 57 q 179 243 179 178 l 181 346 q 179 386 181 368 q 121 378 156 378 q 68 386 93 378 q 43 417 43 394 q 57 451 43 431 q 179 497 88 490 l 182 665 q 178 764 182 722 q 175 817 175 790 q 204 910 175 878 q 296 942 233 942 q 465 906 368 942 l 471 904 q 535 874 507 896 q 551 838 551 856 q 533 800 551 815 q 490 785 515 785 q 397 806 449 788 q 289 828 332 828 l 294 507 q 456 481 392 507 q 501 428 500 463 q 485 406 501 410 q 456 403 468 403 l 382 406 q 308 392 339 406 q 293 351 293 382 l 294 326 q 292 272 294 303 q 289 208 289 240 q 301 128 289 164 q 349 97 314 97 q 383 101 365 97 q 578 194 486 124 q 642 228 621 228 q 656 211 654 228 q 594 118 656 175 l 588 111 q 477 34 544 68 q 343 0 410 0 z "},"":{"ha":661,"x_min":43,"x_max":657,"o":"m 376 972 q 356 1001 356 972 q 383 1069 356 1028 q 426 1113 401 1100 q 444 1117 435 1117 q 469 1108 458 1117 q 479 1085 479 1099 q 443 1018 479 1061 q 393 976 418 989 q 376 972 383 972 m 343 0 q 251 25 294 0 q 192 117 206 57 q 179 243 179 178 l 181 346 q 179 386 181 368 q 121 378 156 378 q 68 386 93 378 q 43 417 43 394 q 57 451 43 431 q 179 497 88 490 l 182 665 q 178 771 182 719 q 175 817 175 793 q 204 910 175 878 q 297 942 233 942 q 467 906 369 942 l 475 903 q 553 838 553 882 q 535 800 553 815 q 492 785 517 785 q 399 806 450 788 q 290 828 332 828 l 296 507 q 457 481 393 507 q 503 428 501 463 q 485 406 503 410 q 456 403 468 403 l 383 406 q 308 392 339 406 q 294 354 294 382 l 296 326 q 293 269 296 301 q 290 204 290 238 q 302 130 290 163 q 349 97 314 97 q 383 101 365 97 q 578 194 486 124 q 643 228 621 228 q 657 211 656 228 q 635 158 657 185 q 588 111 617 139 q 477 34 544 68 q 343 0 410 0 z "},"":{"ha":660,"x_min":43,"x_max":656,"o":"m 483 971 q 475 974 479 971 q 430 1018 449 989 q 403 1074 411 1047 q 363 1028 381 1057 q 338 994 351 1010 q 296 972 317 972 q 272 981 282 972 q 263 1006 263 990 q 289 1067 264 1029 q 346 1135 314 1106 q 406 1165 378 1165 q 419 1163 413 1165 q 469 1081 449 1146 l 478 1058 q 499 988 496 1015 q 494 976 499 981 q 483 971 489 971 m 342 0 q 251 25 293 0 q 192 118 206 57 q 178 244 178 179 l 181 351 l 179 386 q 121 378 156 378 q 67 386 92 378 q 43 417 43 394 q 56 451 43 431 q 179 497 86 490 l 181 649 q 176 768 181 710 l 175 814 q 203 910 175 878 q 296 942 232 942 q 465 906 368 942 l 474 903 q 551 836 551 882 q 533 800 551 815 q 490 785 515 785 q 397 806 449 788 q 289 828 331 828 l 294 507 q 456 481 392 507 q 501 428 500 463 q 484 406 501 410 q 454 403 467 403 l 382 406 q 307 392 338 406 q 293 353 293 382 l 294 326 q 292 272 294 303 q 289 208 289 240 q 301 128 289 164 q 347 97 314 97 q 382 101 364 97 q 575 193 489 125 l 581 197 q 642 228 622 228 q 656 211 654 228 q 633 158 656 185 q 586 111 615 139 q 476 34 543 68 q 342 0 410 0 z "},"":{"ha":660,"x_min":43,"x_max":656,"o":"m 429 1015 q 403 1028 413 1015 q 393 1057 393 1042 q 418 1093 393 1079 q 432 1096 425 1096 q 458 1082 449 1096 q 468 1053 468 1068 q 444 1018 468 1031 q 429 1015 436 1015 m 293 1019 q 265 1033 276 1019 q 253 1061 253 1046 q 272 1092 253 1078 q 290 1096 281 1096 q 319 1083 307 1096 q 331 1054 331 1069 q 315 1026 331 1039 q 293 1019 304 1019 m 342 0 q 251 25 293 0 q 192 117 206 57 q 179 243 179 178 l 181 346 q 179 386 181 368 q 121 378 156 378 q 68 386 93 378 q 43 417 43 394 q 57 451 43 431 q 179 497 86 490 l 182 665 q 178 764 182 722 q 175 817 175 790 q 204 910 175 878 q 296 942 233 942 q 465 906 368 942 l 474 903 q 551 838 551 882 q 533 800 551 815 q 490 785 515 785 q 397 806 449 788 q 289 828 332 828 l 294 507 q 456 481 392 507 q 501 428 500 463 q 484 406 501 410 q 454 403 467 403 l 382 406 q 307 392 338 406 q 293 353 293 382 l 294 326 q 292 272 294 303 q 289 208 289 240 q 301 128 289 164 q 349 97 314 97 q 383 101 365 97 q 578 194 486 125 q 642 228 621 228 q 656 211 654 228 q 594 118 656 175 l 588 111 q 477 34 544 68 q 342 0 410 0 z "},"":{"ha":422,"x_min":13,"x_max":381,"o":"m 208 972 q 149 1015 181 972 q 118 1092 118 1057 q 142 1125 118 1115 l 147 1126 q 185 1104 165 1126 q 217 1052 204 1082 q 231 1000 231 1022 q 217 974 231 981 l 208 972 m 68 -3 q 32 10 47 -1 q 13 54 13 25 q 33 94 13 82 q 76 113 53 106 q 116 129 99 119 q 138 158 133 139 q 143 232 143 194 q 138 335 143 283 q 133 433 133 388 q 142 630 133 532 q 150 825 150 728 q 128 822 139 822 q 82 836 103 822 q 61 874 61 850 q 74 906 61 889 q 107 930 86 924 q 147 938 128 936 l 156 939 q 232 946 193 946 q 332 925 283 946 q 368 889 368 906 q 334 853 368 867 q 271 836 300 839 l 222 147 q 274 144 235 147 q 347 131 313 142 q 381 96 381 119 q 375 78 381 88 q 315 50 363 56 l 256 42 q 132 14 176 31 q 68 -3 101 -3 z "},"":{"ha":421,"x_min":11,"x_max":379,"o":"m 206 972 q 186 999 186 972 q 213 1069 186 1028 q 256 1113 231 1100 q 274 1117 265 1117 q 298 1108 288 1117 q 308 1085 308 1099 q 272 1018 308 1060 q 222 976 247 989 q 206 972 213 972 m 68 -3 q 32 10 46 -1 q 11 53 11 25 q 31 94 11 82 q 75 113 51 106 q 116 129 99 119 q 138 158 133 139 q 143 229 143 193 q 138 328 143 278 q 133 429 133 379 q 141 630 133 532 q 149 825 149 728 q 128 822 138 822 q 82 837 103 822 q 61 874 61 851 q 73 906 61 889 q 106 930 85 924 q 146 938 126 936 l 154 939 q 231 946 193 946 q 331 925 283 946 q 367 889 367 906 q 350 863 367 875 q 311 844 333 851 q 271 836 289 838 l 221 147 q 273 144 235 147 q 345 131 311 142 q 379 96 379 119 q 374 78 379 88 q 315 50 361 56 l 257 42 q 131 13 175 31 q 68 -3 100 -3 z "},"":{"ha":422,"x_min":13,"x_max":381,"o":"m 313 971 q 304 974 308 971 q 259 1018 278 989 q 232 1074 240 1047 q 192 1028 210 1056 q 167 994 179 1010 q 125 972 147 972 q 101 981 111 972 q 92 1006 92 990 q 118 1067 93 1029 q 175 1135 143 1106 q 235 1165 207 1165 q 249 1163 242 1165 q 299 1081 278 1146 l 307 1058 q 329 989 324 1018 q 324 976 329 981 q 313 971 318 971 m 68 -3 q 32 10 47 -1 q 13 54 13 25 q 33 94 13 82 q 76 113 53 106 q 116 129 99 119 q 138 158 133 139 q 143 232 143 194 q 138 335 143 283 q 133 433 133 388 q 142 630 133 532 q 150 825 150 728 q 128 822 139 822 q 82 836 103 822 q 61 874 61 850 q 74 906 61 889 q 107 930 86 924 q 147 938 128 936 l 156 939 q 232 946 193 946 q 332 925 283 946 q 368 889 368 906 q 334 853 368 867 q 271 836 300 839 l 221 147 q 274 144 235 147 q 347 131 313 142 q 381 96 381 119 q 375 78 381 88 q 315 50 363 56 l 256 42 q 129 13 175 31 q 68 -3 100 -3 z "},"":{"ha":421,"x_min":11,"x_max":379,"o":"m 278 1000 q 253 1013 263 1000 q 244 1039 244 1025 q 268 1074 244 1061 q 281 1076 275 1076 q 306 1064 297 1076 q 315 1036 315 1051 q 292 1003 315 1015 q 278 1000 285 1000 m 151 1003 q 125 1016 136 1003 q 114 1044 114 1029 q 131 1072 114 1060 q 147 1076 139 1076 q 174 1064 163 1076 q 186 1036 186 1051 q 171 1010 186 1022 q 151 1003 161 1003 m 68 -3 q 32 10 46 -1 q 11 53 11 25 q 31 94 11 82 q 75 113 51 106 q 116 129 99 119 q 138 158 133 139 q 143 229 143 192 q 138 333 143 281 q 132 433 132 386 q 140 619 133 526 q 149 825 149 722 q 128 822 138 822 q 82 837 103 822 q 61 874 61 851 q 73 906 61 889 q 106 930 85 924 q 146 938 126 936 l 154 939 q 231 946 192 946 q 331 925 282 946 q 367 889 367 906 q 350 863 367 875 q 311 844 333 851 q 271 836 289 838 l 221 147 q 272 144 233 147 q 345 131 311 142 q 379 96 379 119 q 374 78 379 88 q 314 50 361 56 l 254 42 q 131 13 174 31 q 68 -3 100 -3 z "},"":{"ha":690,"x_min":3,"x_max":671,"o":"m 251 399 l 246 365 q 239 300 242 343 l 239 279 q 246 215 239 247 q 282 176 253 182 l 293 176 q 372 203 333 176 q 439 263 411 229 q 563 619 563 419 l 563 632 q 556 703 563 658 q 532 785 550 749 q 479 826 514 822 q 413 792 443 825 q 367 731 383 760 q 289 558 314 647 q 272 496 279 528 q 400 479 340 494 q 426 457 426 468 q 421 446 426 454 q 389 427 415 438 q 346 413 363 417 q 251 399 299 403 m 115 490 l 115 743 q 121 879 117 863 q 171 917 136 915 l 174 917 q 225 885 207 917 q 235 845 232 869 q 239 796 239 821 q 239 754 239 771 q 238 743 238 747 l 238 736 q 328 874 261 813 q 474 943 394 935 q 488 944 481 944 q 610 868 557 944 q 671 639 671 763 q 656 494 671 600 q 550 263 640 388 q 426 136 497 183 q 326 107 383 107 q 249 119 290 107 l 249 100 l 250 81 q 249 56 250 71 q 238 26 247 42 q 192 1 218 1 q 164 6 185 1 q 131 47 143 10 q 122 192 125 69 q 117 396 119 285 q 60 401 89 399 q 17 424 33 406 q 3 454 3 438 q 3 468 3 457 q 35 490 4 479 q 68 494 51 494 q 97 492 82 494 q 115 490 107 490 z "},"":{"ha":571,"x_min":10,"x_max":564,"o":"m 463 -3 q 439 1 451 -3 q 378 73 400 18 q 343 178 356 128 l 335 208 q 229 607 276 404 q 185 775 189 775 q 181 771 182 775 q 132 250 136 554 q 135 185 132 224 q 138 107 138 146 q 131 39 138 67 q 75 1 110 1 q 25 33 46 1 q 10 128 10 76 l 11 215 l 10 307 q 42 722 10 517 q 61 813 47 763 q 101 903 75 864 q 176 943 128 943 l 192 942 q 274 876 244 929 q 382 503 328 772 q 446 244 408 376 q 450 240 447 240 q 454 244 454 240 q 474 525 471 383 q 488 757 476 642 l 490 790 q 511 926 497 878 q 533 943 519 943 q 550 938 543 943 q 564 821 564 926 q 561 706 564 761 q 557 549 557 625 l 558 338 q 547 125 558 201 q 463 -3 529 -3 m 239 971 q 216 983 225 971 q 207 1010 207 994 q 235 1075 210 1046 q 300 1107 261 1104 q 331 1097 319 1107 q 353 1076 343 1088 q 372 1055 363 1064 q 397 1046 382 1046 q 430 1070 407 1047 q 464 1093 453 1093 q 476 1083 471 1093 q 481 1060 481 1072 q 457 1007 481 1032 q 386 974 424 974 q 303 1032 332 974 q 283 1004 292 1021 q 257 976 274 988 q 239 971 247 971 z "},"":{"ha":574,"x_min":25,"x_max":561,"o":"m 328 972 q 267 1015 299 972 q 236 1092 236 1057 q 260 1125 236 1115 l 265 1126 q 303 1103 283 1126 q 337 1051 324 1081 q 350 1000 350 1022 q 336 974 350 981 l 328 972 m 274 -6 q 181 27 221 -6 q 115 107 142 60 q 72 203 88 154 q 25 501 25 346 q 79 778 25 647 q 240 943 140 915 q 263 946 253 946 q 292 939 281 946 q 314 922 304 932 q 394 889 339 897 q 437 880 417 886 q 476 856 457 874 q 529 772 513 821 q 561 540 561 674 q 506 231 561 382 q 307 -1 436 33 q 274 -6 290 -6 m 274 126 q 390 271 340 139 q 458 594 458 426 q 454 682 458 638 q 331 833 442 833 l 307 832 q 175 699 215 817 q 143 496 143 601 q 168 299 143 393 l 172 285 q 190 220 178 257 q 221 155 201 183 q 269 126 240 126 l 274 126 z "},"":{"ha":574,"x_min":25,"x_max":561,"o":"m 321 972 q 300 1001 300 972 q 328 1069 300 1028 q 371 1113 346 1100 q 389 1117 379 1117 q 413 1108 403 1117 q 424 1085 424 1099 q 388 1018 424 1061 q 338 976 363 989 q 321 972 328 972 m 272 -6 q 181 27 219 -6 q 115 107 142 60 q 72 203 88 154 q 25 501 25 346 q 79 778 25 647 q 240 943 139 917 q 263 946 253 946 q 292 939 281 946 q 314 922 304 932 q 394 889 339 897 q 436 880 415 886 q 476 856 457 874 q 529 772 513 821 q 561 540 561 674 q 506 231 561 382 q 306 -1 436 33 q 272 -6 289 -6 m 274 126 q 386 263 336 138 q 458 594 458 422 q 454 682 458 638 q 420 790 449 746 q 329 833 392 833 l 306 832 q 175 699 215 817 q 143 497 143 603 q 168 299 143 394 l 172 285 q 190 220 178 257 q 221 155 201 183 q 269 126 240 126 l 274 126 z "},"":{"ha":574,"x_min":24,"x_max":561,"o":"m 240 1097 l 239 1097 l 240 1097 m 435 971 q 426 974 431 971 q 381 1018 400 989 q 356 1074 363 1047 q 314 1026 332 1056 q 289 994 303 1008 q 247 972 269 972 q 224 981 233 972 q 214 1006 214 990 q 240 1067 215 1029 q 297 1135 265 1106 q 357 1165 329 1165 q 371 1163 364 1165 q 421 1081 400 1146 l 429 1058 q 451 989 444 1026 q 447 976 451 981 q 435 971 442 971 m 272 -6 q 181 27 219 -6 q 115 107 142 60 q 72 203 88 154 q 24 500 24 344 q 79 778 24 646 q 240 943 139 917 q 263 946 253 946 q 292 939 281 946 q 313 922 303 932 q 394 889 338 897 q 436 880 415 886 q 476 856 457 874 q 561 539 561 772 q 506 231 561 381 q 306 -1 436 33 q 272 -6 289 -6 m 272 126 q 388 264 336 138 q 458 597 458 421 q 454 682 458 639 q 329 833 440 833 l 306 832 q 175 699 214 817 q 142 496 142 601 q 168 299 142 393 l 172 285 q 190 219 178 256 q 221 155 201 183 q 268 126 240 126 l 272 126 z "},"":{"ha":574,"x_min":24,"x_max":561,"o":"m 274 971 q 251 983 260 971 q 242 1010 242 994 q 270 1075 244 1046 q 335 1107 296 1104 q 366 1097 354 1107 q 388 1076 378 1088 q 407 1055 397 1064 q 432 1046 417 1046 q 465 1070 442 1047 q 499 1093 488 1093 q 510 1083 506 1093 q 515 1060 515 1072 q 492 1007 515 1032 q 421 974 458 974 q 338 1032 367 974 q 317 1004 326 1021 q 292 976 308 988 q 274 971 282 971 m 272 -6 q 180 27 219 -6 q 113 107 140 60 q 71 203 86 154 q 24 500 24 344 q 78 778 24 646 q 239 943 139 915 q 263 946 251 946 q 291 939 279 946 q 313 922 303 932 q 393 889 338 897 q 435 880 415 886 q 476 856 456 874 q 528 772 511 821 q 561 539 561 671 q 506 231 561 381 q 306 -1 436 33 q 272 -6 289 -6 m 272 126 q 388 264 336 138 q 457 592 457 419 q 453 682 457 636 q 329 833 440 833 l 306 832 q 175 699 214 817 q 142 496 142 601 q 168 299 142 393 l 172 282 q 190 218 179 254 q 220 154 201 182 q 268 126 239 126 l 272 126 z "},"":{"ha":574,"x_min":25,"x_max":561,"o":"m 411 1006 q 384 1019 394 1006 q 374 1049 374 1033 q 399 1085 374 1071 q 411 1088 406 1088 q 439 1074 429 1088 q 449 1044 449 1060 q 424 1008 449 1022 q 411 1006 417 1006 m 275 1010 q 247 1023 258 1010 q 235 1051 235 1036 q 254 1082 235 1068 q 272 1086 264 1086 q 300 1074 289 1086 q 311 1046 311 1061 q 296 1017 311 1029 q 275 1010 285 1010 m 274 -6 q 181 27 221 -6 q 115 107 142 60 q 72 203 88 154 q 25 501 25 346 q 79 778 25 647 q 240 943 140 915 q 263 946 253 946 q 292 939 281 946 q 314 922 304 932 q 394 889 339 897 q 437 880 417 886 q 478 856 457 874 q 529 772 513 821 q 561 540 561 674 q 506 231 561 382 q 307 -1 436 33 q 274 -6 290 -6 m 274 126 q 390 271 340 139 q 458 594 458 426 q 454 682 458 638 q 331 833 442 833 l 307 832 q 175 699 215 817 q 143 497 143 603 q 169 299 143 394 l 174 282 q 192 218 181 254 q 222 154 203 182 q 269 126 240 126 l 274 126 z "},"":{"ha":510,"x_min":11,"x_max":500,"o":"m 467 69 q 398 98 433 69 q 335 154 363 126 q 256 224 319 169 q 174 151 189 167 q 110 97 144 124 q 43 69 75 69 l 31 71 q 11 94 11 79 q 21 126 11 110 q 111 240 61 188 l 167 303 q 15 446 92 372 q 11 472 11 460 q 27 513 11 496 q 58 536 43 531 q 85 542 74 542 q 108 538 100 542 l 256 393 l 401 538 q 425 542 410 542 q 453 536 438 542 q 484 513 468 531 q 500 474 500 496 q 494 446 500 460 q 343 303 419 372 l 399 240 q 489 126 449 188 q 499 96 499 111 q 479 71 499 79 l 467 69 z "},"":{"ha":585,"x_min":1,"x_max":569,"o":"m 401 806 q 325 831 374 831 q 306 829 315 831 q 222 783 253 821 q 174 696 190 744 q 142 497 142 603 q 154 358 142 425 q 321 658 233 510 q 375 754 349 706 q 397 796 385 771 q 401 806 399 800 m 193 206 q 222 150 206 174 q 269 124 240 124 l 272 124 q 343 177 314 131 q 388 263 372 224 q 389 267 389 265 q 457 589 457 424 q 456 647 457 618 q 193 206 329 422 m 526 772 q 528 769 526 771 q 550 672 543 721 q 561 536 561 604 q 504 228 561 379 q 431 85 478 153 q 306 -4 383 17 q 272 -7 289 -7 q 154 49 200 -7 q 124 89 138 68 l 93 44 q 25 -7 60 0 l 21 -7 q 6 1 10 -7 q 1 18 1 10 q 1 28 1 21 q 6 46 1 36 q 69 197 32 124 q 71 200 71 199 q 24 489 26 335 l 24 503 q 78 774 24 649 q 141 876 101 828 q 239 940 181 924 q 261 943 251 943 q 287 938 274 943 q 313 919 300 932 q 356 894 328 904 q 392 886 374 889 q 435 876 414 883 l 439 875 q 443 883 440 879 q 504 936 469 925 q 529 939 518 939 q 563 925 554 939 q 569 897 569 914 q 564 863 569 886 q 543 807 558 839 q 526 772 533 786 z "},"":{"ha":599,"x_min":24,"x_max":565,"o":"m 371 972 q 311 1015 343 972 q 279 1092 279 1057 q 303 1125 279 1115 l 308 1126 q 347 1103 326 1126 q 380 1051 367 1081 q 393 1000 393 1022 q 379 974 393 981 l 371 972 m 174 3 q 125 18 149 3 q 81 69 101 33 q 51 146 61 106 q 24 364 24 250 q 75 725 24 535 q 149 913 96 826 q 200 940 171 940 q 238 922 221 940 q 256 876 256 903 q 243 817 256 849 q 215 754 231 785 q 190 692 199 718 q 149 385 149 539 q 174 164 149 274 q 189 151 176 151 q 201 158 196 151 q 289 312 257 226 q 346 486 321 397 q 393 638 367 565 l 407 683 q 446 803 422 742 q 518 878 476 878 q 565 782 565 878 q 554 663 565 735 q 533 436 546 611 q 509 165 522 290 q 481 21 496 39 q 472 18 476 18 q 461 26 465 18 q 451 58 453 39 q 440 229 440 146 l 435 389 q 367 194 414 289 q 314 100 342 139 q 174 3 243 3 z "},"":{"ha":599,"x_min":24,"x_max":565,"o":"m 383 972 q 364 999 364 972 q 390 1069 364 1028 q 433 1113 408 1100 q 451 1117 443 1117 q 476 1108 465 1117 q 486 1085 486 1099 q 450 1018 486 1060 q 400 976 425 989 q 383 972 390 972 m 174 3 q 125 18 149 3 q 81 69 101 33 q 51 146 61 106 q 24 364 24 250 q 75 725 24 535 q 149 913 96 826 q 200 940 171 940 q 238 922 221 940 q 256 876 256 903 q 243 817 256 849 q 215 754 231 785 q 190 692 199 718 q 149 385 149 539 q 174 164 149 274 q 189 151 176 151 q 201 158 196 151 q 289 312 257 226 q 346 486 321 397 q 393 638 367 565 l 407 683 q 447 803 422 740 q 518 878 476 878 q 565 782 565 878 q 554 663 565 735 q 533 436 546 611 q 509 165 522 290 q 481 21 496 39 q 472 18 476 18 q 461 26 465 18 q 451 58 453 39 q 440 229 440 146 q 438 329 440 264 l 435 389 q 367 194 414 289 q 314 100 342 139 q 174 3 243 3 z "},"":{"ha":599,"x_min":24,"x_max":565,"o":"m 485 971 q 476 974 481 971 q 433 1018 451 989 q 406 1074 414 1047 q 364 1026 382 1056 q 339 994 353 1008 q 299 972 319 972 q 275 981 285 972 q 265 1006 265 990 q 292 1067 267 1029 q 349 1135 317 1106 q 408 1165 381 1165 q 422 1163 415 1165 q 472 1081 451 1146 l 481 1058 q 501 988 499 1015 q 497 976 501 981 q 485 971 492 971 m 174 3 q 125 18 149 3 q 81 69 101 33 q 51 146 61 106 q 24 364 24 250 q 75 725 24 535 q 149 913 96 826 q 200 940 171 940 q 238 922 221 940 q 256 876 256 903 q 243 817 256 849 q 215 754 231 785 q 190 692 199 718 q 149 385 149 539 q 174 164 149 274 q 189 151 176 151 q 201 158 196 151 q 289 312 257 226 q 346 486 321 397 q 393 638 367 565 l 407 683 q 447 803 422 740 q 518 878 476 878 q 565 782 565 878 q 554 663 565 735 q 533 436 546 611 q 509 165 522 290 q 481 21 496 39 q 472 18 476 18 q 461 26 465 18 q 451 58 453 39 q 440 229 440 146 q 438 329 440 264 l 435 389 q 372 206 415 294 l 361 179 q 315 101 344 142 q 248 31 285 60 q 174 3 211 3 z "},"":{"ha":599,"x_min":24,"x_max":565,"o":"m 451 1015 q 425 1028 435 1015 q 415 1057 415 1042 q 440 1093 415 1079 q 454 1096 447 1096 q 481 1083 471 1096 q 490 1054 490 1069 q 465 1018 490 1031 q 451 1015 457 1015 m 314 1019 q 285 1033 297 1019 q 274 1061 274 1046 q 293 1092 274 1078 q 311 1096 301 1096 q 340 1083 328 1096 q 351 1054 351 1069 q 336 1026 351 1039 q 314 1019 325 1019 m 174 3 q 125 18 149 3 q 82 69 101 33 q 51 146 63 106 q 24 364 24 250 q 75 725 24 535 q 149 913 96 826 q 200 940 171 940 q 238 922 221 940 q 256 876 256 903 q 243 817 256 849 q 215 754 231 785 q 190 692 199 718 q 149 382 149 538 q 174 164 149 272 q 189 151 176 151 q 201 158 196 151 q 290 314 257 226 q 347 492 324 401 q 393 638 368 568 l 407 683 q 447 803 422 740 q 518 878 476 878 q 565 782 565 878 q 554 663 565 735 q 533 436 546 611 q 509 165 522 290 q 481 21 496 39 q 472 18 476 18 q 453 53 460 18 l 451 58 q 440 229 440 146 q 438 329 440 264 l 435 389 q 372 206 415 294 l 361 179 q 315 101 344 142 q 248 31 285 60 q 174 3 211 3 z "},"":{"ha":536,"x_min":17,"x_max":529,"o":"m 217 -6 q 162 10 186 -6 q 126 52 138 26 q 115 106 115 78 q 130 169 115 139 q 171 217 144 200 q 186 222 181 222 q 201 203 200 222 q 196 176 201 196 q 183 117 183 138 q 213 82 183 82 l 215 82 q 317 178 267 89 q 414 536 413 344 l 408 536 q 324 399 376 460 q 172 317 250 317 q 99 342 133 317 q 44 421 65 367 q 17 592 17 504 q 46 801 17 699 l 51 826 q 65 878 57 851 q 92 922 74 904 q 133 939 110 939 q 182 911 163 939 q 189 876 189 896 q 167 779 189 843 q 140 615 140 704 q 165 438 140 526 q 286 550 242 465 q 356 715 331 635 l 375 768 q 399 826 383 799 q 444 853 414 853 q 469 849 456 853 q 519 771 510 831 q 529 661 529 711 l 529 625 q 510 404 529 526 q 440 177 492 282 q 293 15 389 72 q 217 -6 257 -6 m 311 972 q 292 999 292 972 q 318 1069 292 1028 q 361 1113 336 1100 q 379 1117 371 1117 q 403 1108 393 1117 q 414 1085 414 1099 q 378 1018 414 1060 q 328 976 353 989 q 311 972 318 972 z "},"":{"ha":1556,"x_min":0,"x_max":0,"o":""},"":{"ha":1738,"x_min":0,"x_max":0,"o":""},"":{"ha":535,"x_min":39,"x_max":526,"o":"m 463 -4 q 447 5 454 -4 q 433 24 439 14 q 425 40 428 35 q 390 211 390 126 q 347 156 367 183 q 279 75 317 113 q 210 28 250 49 q 132 7 169 7 q 39 150 39 7 q 76 328 39 236 q 177 483 113 419 q 325 546 242 546 q 424 519 372 546 q 478 554 449 554 q 512 541 497 554 q 526 501 526 528 q 501 344 524 443 q 481 241 490 293 q 472 133 472 189 q 476 99 472 121 q 482 38 482 67 q 472 0 482 13 q 463 -4 467 -4 m 158 133 q 247 210 208 158 q 313 313 285 261 l 336 350 q 360 401 360 383 q 349 420 360 413 q 328 428 339 428 q 247 381 290 428 q 158 133 158 289 m 374 565 q 327 599 351 565 q 303 660 303 632 q 321 686 303 679 l 326 688 q 356 669 340 688 q 381 628 371 651 q 392 588 392 606 q 374 565 392 565 z "},"":{"ha":533,"x_min":39,"x_max":526,"o":"m 463 -4 q 446 5 454 -4 q 432 24 438 14 q 425 40 426 35 q 389 211 390 122 q 349 160 368 186 q 278 75 317 114 q 210 28 250 49 q 132 7 169 7 q 39 150 39 7 q 76 328 39 236 q 177 483 113 419 q 325 546 242 546 q 422 519 371 546 q 476 554 446 554 q 511 540 496 554 q 526 500 526 526 q 501 350 525 451 q 481 244 490 297 q 472 133 472 190 q 475 99 472 121 q 481 38 481 67 q 463 -4 481 -4 m 158 133 q 245 209 208 158 q 311 313 282 260 l 332 346 q 358 401 358 382 q 349 420 358 413 q 326 428 339 428 q 247 381 290 428 q 158 133 158 289 m 385 565 q 368 589 368 565 q 391 645 368 610 q 439 681 414 681 q 457 674 449 681 q 465 656 465 667 q 438 603 465 635 q 385 565 406 565 z "},"":{"ha":594,"x_min":43,"x_max":586,"o":"m 514 -4 q 496 6 504 -4 q 481 26 488 15 q 472 44 475 38 q 433 235 433 142 l 392 182 q 233 31 318 75 q 146 7 189 7 q 43 168 43 7 q 84 365 43 263 q 197 537 125 467 q 361 607 269 607 q 471 578 414 607 q 531 617 497 617 q 569 601 553 617 q 586 557 586 586 l 586 547 q 558 388 575 465 q 535 270 544 329 q 525 149 525 211 q 529 110 525 136 q 535 43 535 75 q 525 1 535 15 q 514 -4 519 -4 m 176 149 q 274 235 232 178 q 349 350 317 292 l 371 386 q 399 446 399 425 q 388 467 399 458 q 364 476 378 476 q 275 424 322 476 q 176 149 176 321 m 526 657 q 519 658 522 657 q 480 699 496 674 q 457 746 464 724 q 419 704 436 731 q 399 676 410 689 q 363 657 381 657 q 341 665 350 657 q 332 688 332 674 q 357 743 333 707 q 406 801 378 775 q 458 828 433 828 q 515 751 492 828 l 524 729 q 540 671 538 694 q 536 660 540 664 q 526 657 532 657 z "},"":{"ha":599,"x_min":43,"x_max":590,"o":"m 518 -4 q 500 6 508 -4 q 485 27 492 15 q 476 44 479 39 q 438 236 438 140 l 392 178 q 313 85 356 128 q 235 31 281 54 q 149 7 190 7 q 43 169 43 7 q 85 367 43 264 q 199 540 126 469 q 364 611 271 611 q 474 582 417 611 q 535 621 501 621 q 574 606 557 621 q 590 560 590 590 q 563 390 588 503 q 539 273 549 332 q 529 150 529 214 q 533 110 529 136 q 540 43 540 74 q 529 1 540 15 q 518 -4 524 -4 m 178 150 q 276 235 233 178 q 351 351 318 293 l 374 389 q 401 449 401 428 q 391 470 401 461 q 367 479 381 479 q 317 461 342 479 q 278 426 292 443 q 178 150 178 324 m 358 661 q 338 671 346 661 q 329 694 329 681 q 354 752 331 725 q 411 781 378 779 q 438 772 428 781 q 458 753 449 764 q 475 735 467 743 q 497 728 483 728 q 526 748 506 728 q 557 768 547 768 q 567 759 563 768 q 572 739 572 750 q 551 693 572 714 q 489 663 522 663 q 445 677 465 663 q 414 714 425 692 q 397 692 404 704 q 358 661 381 661 z "},"":{"ha":597,"x_min":43,"x_max":589,"o":"m 518 -4 q 478 40 499 -4 l 475 44 q 436 236 436 140 l 393 181 q 313 85 357 129 q 235 31 281 54 q 147 7 190 7 q 43 169 43 7 q 85 367 43 265 q 199 540 126 469 q 364 610 271 610 q 474 582 417 610 q 535 621 501 621 q 572 606 556 621 q 589 560 589 590 q 561 386 586 499 q 539 271 549 329 q 529 150 529 213 q 533 110 529 136 q 539 43 539 74 q 529 1 539 15 q 518 -4 524 -4 m 178 150 q 273 233 232 178 q 346 343 314 288 l 376 393 q 401 450 401 429 q 391 470 401 461 q 367 479 381 479 q 276 426 326 479 q 178 150 178 324 m 506 693 q 480 706 489 693 q 471 733 471 718 q 494 768 471 756 q 507 771 501 771 q 532 758 522 771 q 542 729 542 744 q 518 696 542 708 q 506 693 511 693 m 375 697 q 349 710 360 697 q 338 738 338 722 q 356 765 338 753 q 374 771 364 771 q 400 758 389 771 q 411 731 411 744 q 396 704 411 715 q 375 697 385 697 z "},"":{"ha":599,"x_min":43,"x_max":590,"o":"m 518 -4 q 501 6 510 -4 q 485 27 492 15 q 476 44 479 39 q 438 238 438 142 q 390 178 413 208 q 313 85 356 128 q 235 31 281 54 q 147 7 190 7 q 43 169 43 7 q 85 368 43 265 q 199 542 126 471 q 364 613 271 613 q 474 583 417 613 q 535 622 501 622 q 574 607 557 622 q 590 563 590 592 q 563 388 588 500 q 540 271 550 329 q 531 150 531 213 q 535 113 531 138 q 540 46 540 78 q 529 1 540 15 q 518 -4 524 -4 m 178 150 q 278 238 235 179 q 354 357 321 297 l 374 390 q 401 450 401 429 q 391 472 401 463 q 367 481 381 481 q 276 428 326 481 q 178 150 178 324 m 410 664 q 367 683 382 664 q 353 725 353 701 q 365 764 353 746 q 406 789 378 782 l 419 790 q 460 770 446 790 q 475 726 475 750 q 464 689 475 707 q 410 664 447 664 m 421 703 q 443 722 433 703 q 446 738 446 729 l 446 747 q 436 749 442 747 q 424 750 431 750 q 392 731 392 749 q 401 712 392 721 q 421 703 410 703 z "},"":{"ha":936,"x_min":43,"x_max":913,"o":"m 642 1 q 540 43 589 1 l 536 47 q 514 3 533 3 q 472 53 496 3 q 433 242 433 149 q 389 185 410 214 q 310 92 354 136 q 233 38 278 61 q 147 15 189 15 q 43 176 43 15 q 84 373 43 271 q 197 545 125 475 q 361 615 269 615 q 471 586 414 615 q 531 625 497 625 q 565 613 550 625 q 585 579 579 601 q 703 625 639 625 q 769 608 735 625 q 819 557 803 592 q 835 481 835 522 q 809 362 835 422 q 741 260 783 301 q 650 218 699 218 q 601 231 625 218 q 608 169 601 200 q 626 124 614 138 q 657 111 639 111 q 824 229 714 111 l 840 247 q 890 278 872 278 q 905 272 897 278 q 913 253 913 265 q 860 142 913 217 l 854 132 q 762 41 819 81 q 642 1 704 1 m 607 317 q 674 384 646 336 q 701 476 701 432 q 699 500 701 489 q 629 424 647 479 q 607 317 611 369 m 176 157 q 274 243 232 186 q 349 358 317 300 l 371 394 q 399 454 399 433 q 388 476 399 467 q 364 485 378 485 q 275 432 322 485 q 176 157 176 329 z "},"":{"ha":1257,"x_min":0,"x_max":0,"o":""},"":{"ha":508,"x_min":40,"x_max":485,"o":"m 213 -6 q 111 36 160 -6 q 40 250 40 104 q 107 522 40 403 q 179 595 135 567 q 272 624 224 624 q 340 607 306 624 q 390 555 374 590 q 406 478 406 519 q 380 357 406 418 q 312 255 354 296 q 219 214 269 214 q 171 225 196 214 q 179 164 174 196 q 197 119 185 132 q 228 106 210 106 q 313 147 265 106 q 392 221 361 188 l 410 239 q 463 272 442 272 q 477 267 469 272 q 485 249 485 261 q 432 136 485 213 l 426 126 q 333 35 390 75 q 213 -6 275 -6 m 178 313 q 244 381 217 332 q 272 476 272 431 q 271 497 272 488 q 200 421 218 476 q 178 313 182 365 m 265 661 q 213 699 240 661 q 185 767 185 738 q 206 797 185 789 l 211 799 q 244 778 228 799 q 273 733 261 758 q 285 686 285 707 q 272 663 285 668 l 265 661 z "},"":{"ha":510,"x_min":40,"x_max":486,"o":"m 214 -6 q 111 36 160 -6 q 40 249 40 106 q 108 522 40 401 q 179 595 135 567 q 274 624 224 624 q 341 607 307 624 q 391 555 375 590 q 407 478 407 519 q 381 358 407 418 q 313 256 356 297 q 221 214 271 214 q 172 226 197 214 q 180 164 175 196 q 198 119 185 132 q 228 106 211 106 q 315 147 267 106 q 394 221 363 188 l 411 239 q 465 274 443 274 q 479 268 472 274 q 486 249 486 263 q 433 135 486 213 l 428 126 q 334 35 392 75 q 214 -6 276 -6 m 179 313 q 246 381 218 333 q 274 474 274 429 q 271 497 274 486 q 201 421 219 476 q 179 313 183 365 m 292 663 q 274 688 274 663 q 297 750 274 713 q 336 788 315 775 q 351 792 344 792 q 373 783 364 792 q 382 763 382 775 q 349 702 382 742 q 292 663 315 663 z "},"":{"ha":510,"x_min":40,"x_max":486,"o":"m 214 -6 q 111 36 160 -6 q 40 249 40 106 q 108 524 40 401 q 272 624 174 624 q 340 607 306 624 q 391 556 375 590 q 407 478 407 521 q 381 358 407 419 q 313 256 356 297 q 221 214 271 214 q 172 226 197 214 q 180 164 175 196 q 198 119 185 132 q 228 106 211 106 q 396 225 286 106 l 414 243 q 465 274 444 274 q 479 268 472 274 q 486 249 486 263 q 433 135 486 213 l 428 126 q 333 35 392 75 q 214 -6 275 -6 m 178 313 q 246 381 218 333 q 274 475 274 429 q 271 499 274 488 q 201 421 219 476 q 178 313 182 365 m 389 663 q 381 665 385 663 q 341 705 357 679 q 318 754 325 731 q 282 713 297 739 q 258 683 271 697 q 221 664 240 664 q 201 672 210 664 q 193 693 193 681 q 216 749 194 715 q 266 808 238 782 q 318 835 294 835 q 376 760 353 835 l 383 740 q 403 678 396 711 q 399 667 403 672 q 389 663 394 663 z "},"":{"ha":508,"x_min":40,"x_max":485,"o":"m 213 -6 q 111 36 160 -6 q 40 250 40 104 q 107 521 40 401 q 178 594 133 565 q 272 622 222 622 q 340 606 306 622 q 390 554 374 589 q 406 476 406 519 q 380 357 406 418 q 312 255 354 296 q 219 214 269 214 q 171 225 196 214 l 178 164 q 226 106 189 106 q 313 147 265 106 q 393 221 361 188 l 410 239 q 463 272 442 272 q 477 267 469 272 q 485 249 485 261 q 432 136 485 213 l 426 126 q 333 35 390 75 q 213 -6 275 -6 m 178 311 q 244 380 217 332 q 272 474 272 428 q 269 497 272 486 q 200 419 218 475 q 178 311 182 364 m 344 701 q 319 714 329 701 q 310 742 310 726 q 333 776 310 763 l 346 779 q 372 766 363 779 q 382 738 382 753 q 358 704 382 717 q 344 701 351 701 m 217 704 q 189 717 200 704 q 178 744 178 729 q 196 774 178 761 q 213 779 204 779 q 239 766 228 779 q 250 738 250 753 q 236 711 250 724 q 217 704 226 704 z "},"":{"ha":213,"x_min":40,"x_max":192,"o":"m 156 -6 q 113 18 132 -6 q 67 115 81 58 q 40 340 40 213 q 54 564 42 515 q 103 619 64 604 q 121 622 113 622 q 166 602 149 622 q 186 553 183 582 l 188 485 q 183 342 188 414 q 178 196 178 269 q 183 115 178 144 q 192 46 192 79 q 188 15 192 28 q 173 -2 183 1 q 156 -6 163 -6 m 125 660 q 69 699 99 660 q 40 769 40 739 q 63 801 40 793 l 68 803 q 103 782 85 803 q 133 734 121 761 q 146 686 146 707 q 132 661 146 668 l 125 660 z "},"":{"ha":192,"x_min":7,"x_max":183,"o":"m 124 -6 q 80 17 99 -6 q 49 69 61 40 q 32 117 38 97 q 7 342 7 229 q 21 567 8 514 q 69 622 31 607 q 88 625 79 625 q 133 605 115 625 q 153 556 150 585 l 154 486 q 150 347 154 417 q 146 208 146 278 q 153 115 146 150 q 160 47 160 81 q 155 15 160 29 q 140 -2 150 1 q 124 -6 131 -6 m 90 664 q 69 692 69 664 q 94 754 69 715 q 151 799 124 799 q 174 790 164 799 q 183 769 183 782 q 151 707 183 744 q 90 664 114 664 z "},"":{"ha":182,"x_min":3,"x_max":172,"o":"m 126 -6 q 83 17 101 -6 q 52 68 64 40 q 36 115 40 96 q 11 347 11 231 q 14 482 11 413 q 24 563 15 529 q 72 618 33 603 q 90 621 82 621 q 135 601 118 621 q 156 551 153 581 l 157 483 q 152 340 157 411 q 147 196 147 268 q 154 114 147 144 q 163 44 163 78 q 158 15 163 28 q 143 -2 153 1 q 126 -6 133 -6 m 161 661 q 154 663 157 661 q 103 733 119 683 q 74 701 88 721 l 57 678 q 26 661 42 661 q 10 668 17 661 q 3 685 3 675 q 22 730 4 703 q 62 778 39 757 q 104 800 85 800 q 150 740 131 800 l 160 714 q 172 672 168 694 q 161 661 172 661 z "},"":{"ha":219,"x_min":24,"x_max":200,"o":"m 139 -6 q 97 17 115 -6 q 65 69 78 40 q 49 115 53 97 q 24 347 24 231 q 26 493 24 419 q 38 568 28 531 q 85 619 47 606 q 103 622 94 622 q 148 602 131 622 q 168 554 165 582 q 171 481 171 518 q 166 341 171 411 q 161 200 161 271 q 168 113 161 146 q 175 46 175 79 q 170 15 175 29 q 156 -2 165 1 q 139 -6 146 -6 m 165 703 q 142 715 150 703 q 133 740 133 726 q 156 774 133 761 l 167 776 q 191 764 182 776 q 200 738 200 751 q 178 706 200 717 q 165 703 171 703 m 61 707 q 35 719 46 707 q 24 744 24 731 q 42 772 24 760 q 58 776 50 776 q 83 765 72 776 q 93 739 93 753 q 79 713 93 724 q 61 707 69 707 z "},"":{"ha":1582,"x_min":0,"x_max":0,"o":""},"":{"ha":494,"x_min":8,"x_max":469,"o":"m 94 -4 q 54 19 67 -4 q 39 75 42 43 q 36 136 36 107 q 22 469 36 303 l 17 514 q 8 594 8 556 q 13 633 8 615 q 39 660 18 651 q 82 669 60 669 q 139 650 117 669 q 156 574 156 629 q 163 519 156 543 q 233 598 185 565 q 333 631 282 631 q 428 576 394 631 q 469 386 469 504 q 442 154 469 290 l 438 131 q 403 24 428 51 q 389 15 394 15 q 372 35 378 15 q 364 78 367 56 q 360 115 361 101 l 360 122 q 356 221 356 171 l 356 275 q 346 406 356 340 l 344 414 q 333 465 342 436 q 301 496 324 494 q 231 399 265 496 l 226 388 q 168 93 174 250 q 160 39 168 64 q 124 1 153 14 q 94 -4 107 -4 m 176 675 q 156 685 164 675 q 147 708 147 694 q 172 766 149 739 q 229 794 196 793 q 256 786 246 794 q 276 767 267 778 q 293 749 285 757 q 315 742 301 742 q 344 762 324 742 q 375 782 365 782 q 385 773 381 782 q 390 753 390 764 q 369 707 390 728 q 307 676 340 676 q 263 691 283 676 q 232 728 243 706 q 215 706 222 718 q 176 675 199 675 z "},"":{"ha":446,"x_min":25,"x_max":446,"o":"m 228 -1 q 125 40 168 -1 q 25 329 25 136 q 63 509 25 425 q 192 618 100 593 q 215 621 204 621 q 272 603 239 621 q 329 579 297 589 q 373 563 353 574 q 410 529 393 553 q 446 374 446 475 q 432 228 446 308 q 377 85 418 147 q 260 1 336 22 q 228 -1 243 -1 m 235 136 q 289 196 265 143 l 292 200 q 339 396 339 297 l 338 424 q 326 482 333 461 q 288 508 318 508 l 278 507 q 183 441 210 493 q 157 328 157 389 q 174 206 157 269 q 231 136 193 136 l 235 136 m 286 663 q 251 681 269 663 q 219 724 232 699 q 206 769 206 749 q 225 799 206 790 l 231 800 q 265 780 247 800 q 294 734 282 760 q 306 688 306 708 q 293 664 306 669 l 286 663 z "},"":{"ha":446,"x_min":25,"x_max":446,"o":"m 228 -1 q 125 40 168 -1 q 25 329 25 136 q 63 509 25 425 q 192 618 100 593 q 214 621 204 621 q 269 603 238 621 q 329 579 294 589 q 373 563 353 574 q 411 528 393 553 q 446 374 446 474 q 432 227 446 307 q 377 85 418 147 q 260 1 336 22 q 228 -1 243 -1 m 235 136 q 289 193 265 142 l 292 200 q 339 394 339 297 q 328 479 339 443 q 289 508 319 508 l 279 507 q 183 440 210 492 q 157 325 157 388 q 174 206 157 269 q 231 136 193 136 l 235 136 m 276 663 q 258 688 258 663 q 284 752 258 713 q 338 792 310 792 q 358 784 349 792 q 367 764 367 776 q 333 702 367 742 q 276 663 300 663 z "},"":{"ha":444,"x_min":25,"x_max":444,"o":"m 228 -1 q 125 40 168 -1 q 25 329 25 136 q 63 508 25 425 q 192 617 100 592 q 214 619 204 619 q 269 601 238 619 q 329 578 294 588 q 373 562 353 572 q 410 526 393 551 q 444 372 444 475 q 431 227 444 307 q 376 85 417 147 q 260 1 336 22 q 228 -1 243 -1 m 235 136 q 290 197 267 142 q 339 394 339 300 l 338 422 q 326 481 333 460 q 288 507 318 507 l 278 506 q 183 438 210 490 q 157 325 157 386 q 174 206 157 269 q 229 136 193 136 l 235 136 m 367 661 l 360 663 q 320 702 336 676 q 297 751 304 728 q 260 710 276 736 q 238 681 250 694 q 203 661 221 661 q 181 669 190 661 q 172 690 172 678 q 195 747 174 713 q 245 807 217 781 q 299 833 274 833 q 311 831 306 833 q 356 757 338 815 l 363 738 q 382 676 375 710 q 378 665 382 669 q 367 661 374 661 z "},"":{"ha":446,"x_min":24,"x_max":446,"o":"m 228 -1 q 124 40 168 -1 q 58 139 81 82 q 24 329 24 224 q 62 510 24 426 q 192 618 100 594 q 217 621 206 621 q 271 604 239 621 q 332 579 294 590 q 374 563 354 572 q 410 529 393 553 q 446 374 446 475 q 432 228 446 308 q 377 85 418 147 q 260 1 336 22 q 228 -1 243 -1 m 235 136 q 290 199 267 143 q 339 396 339 301 l 338 424 q 326 482 333 461 q 289 508 318 508 l 278 507 q 183 441 210 493 q 157 328 157 389 q 174 206 157 269 q 231 136 193 136 l 235 136 m 185 664 q 165 674 174 664 q 157 696 157 683 q 182 756 158 729 q 239 783 206 782 q 267 774 256 783 q 286 755 278 765 q 303 737 294 744 q 325 729 313 729 q 354 751 333 731 q 385 771 375 771 q 395 762 390 771 q 400 742 400 753 q 379 694 400 717 q 318 665 350 665 q 274 680 294 665 q 242 717 254 694 q 224 693 231 707 q 185 664 208 664 z "},"":{"ha":444,"x_min":25,"x_max":444,"o":"m 228 -3 q 125 40 168 -3 q 25 328 25 136 q 63 508 25 424 q 192 615 100 592 q 215 618 204 618 q 271 601 239 618 q 332 576 296 588 q 374 560 354 569 q 410 526 393 550 q 444 372 444 475 q 431 227 444 307 q 376 85 417 147 q 260 1 336 22 q 228 -3 243 -3 m 235 136 q 290 197 267 142 q 339 399 339 300 l 338 422 q 326 479 333 460 q 289 506 318 506 l 278 504 q 183 438 210 490 q 157 324 157 386 q 174 206 157 268 q 229 136 193 136 l 235 136 m 335 700 q 310 713 319 700 q 301 740 301 725 q 325 775 301 761 l 338 778 q 363 765 353 778 q 372 736 372 751 q 349 703 372 715 q 335 700 342 700 m 207 703 q 179 715 190 703 q 168 743 168 728 q 186 772 168 760 q 204 778 194 778 q 231 765 219 778 q 242 738 242 751 q 226 710 242 722 q 207 703 217 703 z "},"":{"ha":533,"x_min":32,"x_max":486,"o":"m 249 439 q 211 456 225 439 q 197 494 197 474 q 208 526 197 513 q 254 549 224 549 q 291 531 278 549 q 304 493 304 514 q 294 461 304 476 q 249 439 279 439 m 335 251 q 246 255 289 251 q 168 258 203 258 q 135 256 153 258 q 99 253 117 253 q 68 257 82 253 q 32 301 32 275 q 50 343 32 324 q 94 367 68 363 q 206 375 147 375 q 400 353 306 375 q 433 342 414 350 q 469 322 453 333 q 486 297 486 310 q 458 271 486 283 q 335 251 401 251 m 246 83 q 206 101 221 83 q 192 142 192 119 q 231 192 192 179 q 246 194 239 194 q 285 176 271 194 q 299 135 299 157 q 290 106 299 118 q 246 83 276 83 z "},"":{"ha":447,"x_min":25,"x_max":447,"o":"m 228 0 q 114 54 165 0 q 47 0 82 8 l 46 0 q 25 22 25 0 q 29 44 25 35 q 65 128 44 89 l 58 142 q 25 332 25 226 q 63 513 25 429 q 193 622 101 597 q 215 625 206 625 q 269 608 238 625 q 326 585 300 590 l 326 586 q 396 622 367 622 q 419 611 410 622 q 439 567 438 588 l 415 528 q 447 376 447 474 q 433 231 447 311 q 378 88 419 150 q 261 4 338 25 q 228 0 244 0 m 158 301 q 281 510 218 408 l 279 510 q 184 444 211 496 q 157 329 157 392 l 158 301 m 236 139 q 290 197 267 144 l 293 203 q 340 404 340 304 q 190 171 268 286 q 231 139 204 139 l 236 139 z "},"":{"ha":467,"x_min":4,"x_max":463,"o":"m 140 -4 q 54 49 96 -4 q 4 290 4 119 q 17 479 4 385 l 19 513 q 36 585 19 553 q 88 614 58 614 q 149 572 125 614 q 157 515 157 547 q 143 397 157 458 q 133 279 133 344 q 140 156 133 217 q 154 143 143 143 q 165 147 160 143 q 232 260 204 192 q 281 397 260 329 q 311 486 296 447 l 321 515 q 343 574 329 544 q 410 615 363 615 q 453 580 444 615 q 463 511 463 544 q 450 135 463 360 l 450 122 q 422 3 450 28 q 411 -3 417 -3 q 376 78 389 -3 q 368 135 368 124 l 357 244 q 312 144 344 201 q 234 41 279 86 q 140 -4 189 -4 m 238 660 q 185 698 213 660 q 157 767 157 736 q 178 796 157 788 l 183 797 q 217 777 200 797 q 245 731 233 757 q 257 686 257 706 q 244 661 257 668 l 238 660 z "},"":{"ha":467,"x_min":4,"x_max":464,"o":"m 140 -4 q 53 49 96 -4 q 25 110 35 78 q 4 290 4 179 q 17 481 4 386 l 18 511 l 18 517 q 35 586 18 556 q 88 615 58 615 q 149 574 125 615 q 157 518 157 550 q 144 410 157 467 l 139 369 q 133 275 133 325 q 139 157 133 215 q 154 143 143 143 q 165 149 160 143 q 232 262 204 193 q 281 399 260 331 q 311 488 296 449 l 322 519 q 344 576 331 550 q 410 617 364 617 q 447 597 436 617 q 461 549 458 576 q 464 493 464 521 q 451 135 460 319 q 450 113 450 125 q 424 3 450 26 q 413 -3 417 -3 q 387 28 396 -3 q 374 91 378 58 q 369 135 369 124 l 357 244 q 312 144 344 201 q 234 41 279 86 q 140 -4 189 -4 m 236 663 q 218 688 218 663 q 244 752 218 713 q 297 792 269 792 q 317 784 308 792 q 326 764 326 776 q 293 702 326 742 q 236 663 260 663 z "},"":{"ha":468,"x_min":4,"x_max":465,"o":"m 142 -4 q 54 49 97 -4 q 25 110 35 78 q 4 292 4 179 q 17 482 4 388 l 19 517 q 36 588 19 556 q 89 617 60 617 q 149 575 126 617 q 158 517 158 550 q 146 410 158 465 l 140 371 q 135 271 135 324 q 140 157 135 213 q 156 143 144 143 q 167 149 161 143 q 233 262 206 193 q 282 399 261 331 q 313 489 297 450 l 324 522 q 346 579 332 551 q 410 619 365 619 q 447 602 435 619 q 462 559 458 585 q 465 500 465 533 q 453 135 463 313 l 453 122 q 425 3 453 28 q 414 -3 418 -3 q 388 28 397 -3 q 375 91 379 58 q 371 135 371 124 l 358 246 q 313 144 346 203 q 235 41 281 86 q 142 -4 190 -4 m 364 664 q 356 667 360 664 q 316 706 332 681 q 293 756 300 732 q 257 714 274 740 l 235 685 q 196 665 215 665 q 176 674 185 665 q 168 694 168 682 q 191 751 169 717 q 241 811 213 785 q 294 838 269 838 q 351 763 326 838 l 360 740 q 378 679 374 704 q 374 668 378 672 q 364 664 369 664 z "},"":{"ha":465,"x_min":4,"x_max":461,"o":"m 139 -4 q 53 49 94 -4 q 4 289 4 118 q 17 479 4 385 q 18 508 18 493 l 18 514 q 35 583 18 553 q 89 614 58 614 q 147 572 125 614 q 156 514 156 547 q 144 406 156 461 l 139 368 q 133 269 133 321 q 144 146 133 157 q 153 142 149 142 q 164 147 160 142 q 231 260 203 192 q 279 396 258 329 q 310 486 294 447 l 321 519 q 343 575 329 549 q 407 615 363 615 q 452 580 443 615 q 461 511 461 544 q 449 135 461 360 l 449 119 q 422 3 449 29 q 411 -3 415 -3 q 385 28 394 -3 q 372 91 376 58 q 368 135 368 124 l 356 243 q 311 143 343 200 q 233 41 279 86 q 139 -4 188 -4 m 315 700 q 291 713 300 700 q 282 740 282 725 q 306 775 282 761 l 318 778 q 343 765 333 778 q 353 736 353 751 q 329 703 353 715 q 315 700 322 700 m 189 703 q 160 716 172 703 q 149 744 149 729 q 167 772 149 760 q 185 778 175 778 q 211 765 200 778 q 222 736 222 751 q 208 710 222 721 q 189 703 199 703 z "},"":{"ha":489,"x_min":13,"x_max":479,"o":"m 168 -389 q 79 -318 101 -389 q 74 -282 74 -303 q 96 -242 74 -242 q 115 -250 108 -242 q 129 -271 122 -258 q 145 -294 136 -283 q 174 -304 154 -304 q 250 -262 215 -301 q 293 -196 278 -231 q 333 -35 325 -118 q 342 128 342 47 q 339 131 342 131 q 333 126 336 131 q 258 27 314 69 q 144 -15 203 -15 q 90 -1 115 -15 q 48 44 65 13 q 25 113 31 76 q 13 246 13 178 q 57 517 13 385 q 90 576 67 546 q 142 607 113 607 q 188 578 164 607 q 200 538 200 558 q 181 461 200 500 l 168 425 q 149 267 149 346 q 156 128 149 197 l 157 113 q 245 240 210 169 q 307 382 281 310 q 321 428 314 401 q 338 483 328 456 q 368 528 349 511 q 413 546 388 546 q 472 506 450 546 q 479 461 479 485 q 474 404 479 433 q 469 351 469 375 l 469 222 q 464 49 469 136 q 282 -351 443 -249 q 168 -389 224 -389 m 288 654 q 269 678 269 654 q 292 734 269 699 q 340 769 315 769 q 358 763 350 769 q 367 744 367 756 q 339 692 367 724 q 288 654 307 654 z "},"":{"ha":1403,"x_min":0,"x_max":0,"o":""},"":{"ha":489,"x_min":13,"x_max":479,"o":"m 168 -389 q 79 -318 101 -389 q 74 -282 74 -303 q 96 -242 74 -242 q 115 -250 108 -242 q 129 -271 122 -258 q 145 -294 136 -283 q 174 -304 154 -304 q 250 -262 215 -301 q 293 -196 278 -231 q 333 -35 325 -118 q 342 128 342 47 q 339 131 342 131 q 333 126 336 131 q 258 27 314 69 q 144 -15 203 -15 q 90 -1 115 -15 q 48 44 65 13 q 25 113 31 76 q 13 246 13 178 q 57 517 13 385 q 90 576 67 546 q 142 607 113 607 q 188 578 164 607 q 200 538 200 558 q 181 461 200 500 l 168 425 q 149 267 149 346 q 156 128 149 197 l 157 113 q 245 240 210 169 q 307 382 281 310 q 321 428 314 401 q 338 483 328 456 q 368 528 349 511 q 413 546 388 546 q 472 506 450 546 q 479 461 479 485 q 474 404 479 433 q 469 351 469 375 l 469 222 q 464 49 469 136 q 282 -351 443 -249 q 168 -389 224 -389 m 375 657 q 351 668 360 657 q 343 693 343 679 q 364 724 343 713 l 375 725 q 398 713 389 725 q 407 689 407 701 q 386 658 407 669 l 375 657 m 258 660 q 234 671 244 660 q 224 694 224 682 q 240 721 224 710 q 256 725 249 725 q 279 714 269 725 q 289 689 289 703 q 276 665 289 676 q 258 660 267 660 z "},"":{"ha":349,"x_min":0,"x_max":0,"o":""},"":{"ha":189,"x_min":43,"x_max":157,"o":"m 135 972 q 75 1015 107 972 q 43 1092 43 1057 q 67 1125 43 1115 l 72 1126 q 110 1103 90 1126 q 144 1051 131 1081 q 157 1000 157 1022 q 143 974 157 981 l 135 972 z "},"":{"ha":135,"x_min":4,"x_max":126,"o":"m 25 972 q 4 1001 4 972 q 32 1069 4 1028 q 75 1113 50 1100 q 93 1117 83 1117 q 116 1108 106 1117 q 126 1085 126 1099 q 92 1018 126 1060 q 42 976 67 989 q 25 972 32 972 z "},"":{"ha":242,"x_min":3,"x_max":240,"o":"m 224 971 q 215 974 219 971 q 170 1018 189 989 q 144 1074 151 1047 q 103 1026 121 1056 q 78 994 92 1008 q 38 972 58 972 q 13 982 22 972 q 3 1007 3 992 q 31 1069 4 1029 q 86 1135 54 1106 q 146 1165 118 1165 q 210 1083 182 1165 l 219 1058 q 240 989 233 1026 q 235 976 240 981 q 224 971 231 971 z "},"":{"ha":296,"x_min":4,"x_max":278,"o":"m 36 971 q 13 983 22 971 q 4 1010 4 994 q 33 1075 7 1046 q 97 1107 58 1104 q 128 1097 117 1107 q 150 1076 140 1088 q 169 1055 160 1064 q 194 1046 179 1046 q 227 1070 204 1047 q 261 1093 250 1093 q 273 1083 268 1093 q 278 1060 278 1072 q 254 1007 278 1032 q 183 974 221 974 q 100 1032 129 974 q 80 1004 89 1021 q 54 976 71 988 q 36 971 44 971 z "},"":{"ha":0,"x_min":0,"x_max":0,"o":""},"":{"ha":0,"x_min":0,"x_max":0,"o":""},"":{"ha":283,"x_min":29,"x_max":260,"o":"m 218 1006 q 190 1020 200 1006 q 179 1051 179 1035 q 206 1090 179 1075 q 219 1093 213 1093 q 249 1078 238 1093 q 260 1047 260 1064 q 233 1008 260 1022 q 218 1006 225 1006 m 72 1011 q 42 1025 54 1011 q 29 1056 29 1039 q 50 1088 29 1074 q 69 1093 60 1093 q 99 1079 86 1093 q 111 1049 111 1065 q 94 1018 111 1032 q 72 1011 83 1011 z "},"":{"ha":204,"x_min":33,"x_max":171,"o":"m 99 971 q 50 992 67 971 q 33 1040 33 1014 q 48 1085 33 1064 q 93 1114 63 1107 l 108 1115 q 154 1093 138 1115 q 171 1043 171 1071 q 158 1001 171 1021 q 118 974 146 981 q 99 971 108 971 m 110 1015 q 136 1039 125 1015 q 139 1056 139 1047 l 139 1067 q 124 1068 132 1067 q 107 1069 115 1069 q 78 1047 78 1064 q 88 1026 78 1036 q 110 1015 97 1015 z "},"":{"ha":0,"x_min":0,"x_max":0,"o":""},"":{"ha":0,"x_min":0,"x_max":0,"o":""},"":{"ha":751,"x_min":0,"x_max":0,"o":""},"":{"ha":1389,"x_min":0,"x_max":0,"o":""},"":{"ha":378,"x_min":0,"x_max":0,"o":""},"":{"ha":378,"x_min":0,"x_max":0,"o":""},"":{"ha":378,"x_min":0,"x_max":0,"o":""},"":{"ha":617,"x_min":0,"x_max":0,"o":""},"":{"ha":618,"x_min":0,"x_max":0,"o":""},"":{"ha":618,"x_min":0,"x_max":0,"o":""},"":{"ha":688,"x_min":0,"x_max":0,"o":""},"":{"ha":688,"x_min":0,"x_max":0,"o":""},"":{"ha":694,"x_min":0,"x_max":0,"o":""},"":{"ha":2844,"x_min":0,"x_max":0,"o":""},"":{"ha":428,"x_min":0,"x_max":0,"o":""},"":{"ha":428,"x_min":0,"x_max":0,"o":""},"":{"ha":232,"x_min":0,"x_max":0,"o":""},"":{"ha":689,"x_min":0,"x_max":0,"o":""},"":{"ha":642,"x_min":32,"x_max":608,"o":"m 238 3 q 192 24 211 3 q 178 64 178 43 q 199 138 178 100 q 218 240 218 185 l 217 279 l 176 279 q 140 274 160 278 q 100 271 121 271 q 71 275 85 271 q 32 314 32 290 q 51 351 32 333 q 96 374 69 368 q 199 385 144 382 l 189 442 l 176 440 q 138 437 158 440 q 97 433 118 433 q 71 436 83 433 q 32 476 32 451 q 51 513 32 496 q 96 536 69 531 q 183 546 138 542 q 205 731 183 629 q 288 896 226 832 q 394 942 340 942 q 509 891 460 942 q 558 767 558 840 q 536 704 558 722 q 497 690 518 690 q 451 715 472 690 q 440 756 440 735 q 431 797 440 778 q 399 819 417 819 q 386 817 393 819 q 352 785 365 807 q 329 742 339 763 q 300 592 300 679 l 301 546 q 451 524 406 539 q 508 486 508 506 q 481 463 508 475 q 328 440 411 440 l 307 440 l 317 383 q 451 363 406 376 q 508 324 508 344 q 481 300 508 313 q 333 278 415 278 q 308 111 333 215 q 390 117 349 117 q 501 110 429 117 l 547 101 q 608 69 608 88 q 600 56 608 63 q 529 40 581 42 l 476 36 q 278 8 363 25 q 238 3 258 3 z "},"":{"ha":1375,"x_min":0,"x_max":0,"o":""},"":{"ha":479,"x_min":8,"x_max":458,"o":"m 243 0 q 142 44 186 0 q 106 129 113 83 q 47 222 93 201 q 24 238 33 229 q 14 268 14 247 l 15 286 q 26 310 18 301 q 46 326 35 319 q 67 344 57 333 q 76 386 76 364 l 76 411 q 28 431 49 415 q 8 475 8 447 q 26 518 8 504 q 51 533 38 528 q 88 565 79 546 q 120 695 110 624 q 156 831 131 767 q 251 931 182 894 q 299 942 275 942 q 392 905 350 942 q 435 819 435 868 q 421 768 435 794 q 378 738 400 738 q 333 761 353 738 q 308 814 313 785 q 238 698 258 772 q 213 558 218 624 q 269 553 242 558 q 307 541 289 549 q 335 519 325 533 q 346 492 346 506 q 325 460 346 474 q 258 440 293 443 q 224 435 240 439 q 196 399 196 429 q 213 372 196 379 q 251 359 229 364 q 290 344 274 354 q 311 307 311 326 q 286 267 311 283 q 194 242 235 246 l 197 221 q 203 179 199 200 q 260 108 214 108 q 310 121 283 108 q 367 150 338 133 q 439 185 425 185 q 453 179 447 185 q 458 167 458 174 l 457 161 q 375 47 439 94 q 243 0 311 0 z "},"":{"ha":3154,"x_min":0,"x_max":0,"o":""},"":{"ha":388,"x_min":22,"x_max":381,"o":"m 94 776 l 90 776 q 79 800 79 776 l 81 818 l 81 963 q 60 960 72 960 q 22 978 22 960 q 33 997 22 985 q 71 1013 43 1008 q 124 1018 99 1018 q 186 996 186 1018 q 178 982 186 986 q 159 976 169 978 q 140 971 149 975 q 124 901 124 964 l 124 876 q 119 822 124 849 q 94 776 114 783 m 361 772 q 333 868 333 790 l 333 893 l 329 893 q 297 863 317 863 q 250 889 274 863 q 231 797 249 842 q 213 781 224 781 q 197 813 197 781 l 199 839 q 208 972 199 906 q 233 1011 211 1011 q 279 956 257 1011 q 290 931 285 940 q 314 972 297 950 q 346 994 331 994 q 371 962 361 994 q 381 889 381 929 q 361 772 381 826 z "},"":{"ha":689,"x_min":0,"x_max":0,"o":""},"":{"ha":733,"x_min":0,"x_max":0,"o":""},"":{"ha":1026,"x_min":0,"x_max":0,"o":""},"":{"ha":818,"x_min":0,"x_max":0,"o":""},"":{"ha":688,"x_min":0,"x_max":0,"o":""},"":{"ha":688,"x_min":0,"x_max":0,"o":""},"":{"ha":688,"x_min":0,"x_max":0,"o":""},"":{"ha":451,"x_min":0,"x_max":0,"o":""},"":{"ha":688,"x_min":0,"x_max":0,"o":""},"":{"ha":688,"x_min":0,"x_max":0,"o":""},"":{"ha":688,"x_min":0,"x_max":0,"o":""},"":{"ha":1490,"x_min":0,"x_max":0,"o":""},"":{"ha":1501,"x_min":0,"x_max":0,"o":""}}}
